<?xml version="1.0" encoding="UTF-8"?>
<svg id="glock" xmlns="http://www.w3.org/2000/svg" xmlns:xlink="http://www.w3.org/1999/xlink" viewBox="0 0 1325.68 994.26">
  <defs>
    <style>
      .cls-1 {
        fill: none;
      }

      .cls-2 {
        isolation: isolate;
      }
    </style>
  </defs>
  <image class="cls-2" width="1600" height="1200" transform="scale(.83)" xlink:href="img/glock17.png"/>
  <path id="c1" class="cls-1" d="M497.27,274.01c2.21,1.82.11,2.7,2.91,2.37,2.8-.33,2.79.68,6.29,1.4,3.49.72,5.01-.03,7.22,1.79,2.21,1.82,4.19,3.8,5.94,2.89,1.75-.91,2.92-1.17,1.29-3.13-1.63-1.95-2.91-.35-5.24-2.85-2.32-2.5-2.91-2.37-5.7-3.04-2.8-.68-7.57-.8-3.72-3.09.3-.18.6-.33.89-.48l-13.41-.22c1.67,2.06,1.36,2.56,3.55,4.36ZM351.18,378.94c-1.01-1.53-2.02-4.15-5.05-3.24-3.04.91-5.08,9.94-9.37,3.46-4.29-6.48-5.3-6.91-3.78-10.11,1.52-3.2,9.37-2.36,9.37-2.36,0,0,3.54,2.05,6.83-1.78,1.89-2.19,6.95-4.04,7.36-3.16,1.07,2.29,2.3,3.48,5.06,5.65,2.76,2.17,3.08-1.37,2.62-2.73-.46-1.36-3.06-5.3-1.37-7.43,1.7-2.12,4.92-1.26,6.15-.74,1.23.52,2.3,5.48,3.37,7.1,1.07,1.62,4.15-.41,4.47-2.62.31-2.21.17-7.11-.29-9.81-.46-2.7-1.99-4.35-1.53-5.66.46-1.31,3.54-1.34,6.61-.04,3.07,1.3,2.46-2.3,2.62-4.07.16-1.77,3.85-3.55,6.93-4.92,3.08-1.37,4.3,1.15,7.38,2.45,3.07,1.3,3.54,0,4.92.08,1.38.08,3.07,1.97,5.22,3.88,2.15,1.91,3.69,2.23,5.99,4.37,2.3,2.14,6.92-.25,9.08-2.34.94-.91.8-3.52,2.59-3.41,3.37.21,4.49-1.35,3.37-3.85-1.12-2.5,2.44-3.64,2.63-7.41.19-3.77-1.86-6.06-4.28-9.73-2.42-3.66,3-5.23,5.44-5.62,2.43-.39,1.86,3.63,3.73,6.45,1.86,2.82,3.73,4.01,5.41,4.93,1.68.91,1.87.39,5.99-.72,4.12-1.1,2.99.45,5.04,2.74.6.67,1.23,1.1,1.87,1.35-.7-.76-1.33-1.68-1.87-2.38-1.03-1.43-1.97-3.01-2.35-4.7-.86-4.49,5.55-3.95,6.28-7.64.31-1.93-.15-4.09.42-5.99.6-2.55,3.12-2.95,5.13-3.2.7.05,12.06.3,22.68.58.21-.25.41-.55.6-.91,1.69-3.14-.18-5.15,4.13-8.4,3.88-2.93.48-4.33-1.46-7.03,3.12-1.82,5.07-3.87,4.26-5.1-.81-1.23-2.1-.63-5.01-.98-2.91-.35-6.29-.89-4.54-2.81,1.75-1.92,2.11-3.92,4.55-3.77,2.45.15,3.96-.1,3.15-2.34-.81-2.24-5.24-1.84-2.32-4.02.7-.52,1.21-1,1.62-1.39l-18.5-.3c.87,3.1-1.23,3.16,2.89,3.87,4.54.78,5.59,3.88,4.88,6.37-.7,2.49.92,4.95.57,5.93-.1.27-.52.66-1,1.11-1.05.04-2.19.07-3.48.09-7.48.08-5.41-5.74-9.9-8.45-4.48-2.71-8.6-1.61-9.16-.02-.56,1.59,6.72,8.53,2.04,10.4-4.68,1.88-7.12,7.14-6.94,10.67.18,3.53-1.89,9.35-3.76,10.59-1.87,1.24-4.86-2.46-6.72-5.28-1.86-2.82-.17-6.77.4-11.61.57-4.83,0-4.06-4.29-6.48-4.3-2.43-6.91-2.32-6.72-4.47.19-2.15,4.5-5.41,5.81-8.3,1.1-2.42.23-2.7-1.61-5.03l-8.06-.13c0,.43-.02.79-.06,1.05-.38,2.68-5.99,3.15-9.35,2.14-3.36-1.02-3.36-1.83-4.68.26-1.31,2.08-3.57,7.63-6.19,9.36-2.62,1.73-6.73-1.22-11.4-2.59-4.67-1.37-5.79-2.25-10.47-.37-3.44,1.38-6.54,7.08-7.1,7.45-2.16,1.43.3,3.13.3,5.8,0,2.67,1.53,2.32,3.07,4.64,1.53,2.32.15,2.23-4.46,1.29-4.61-.95-1.38-1.42-4.77.15-3.39,1.57-5.85,3.2-6.77,1.14-.92-2.06,0-1.33,1.55-5.02,1.55-3.69-1.23-.52-6.45-2.4-5.23-1.88-4.15-2.92-7.38-2.45-3.23.47-3.39.91-.17,6.44,3.22,5.54,3.38-.91,5.38,2.11,1.99,3.01-.62,3.74,1.21,8.53,1.84,4.78,2.3,1.47,7.85-.19,5.54-1.66,2.14,5.92-1.55,7.69-3.7,1.78-2.62,2.06-2.62,4.73,0,2.67.76,3.16,2.6,6.61,1.84,3.45-1.23,1.48-5.54,2.33-4.31.85-6-.37-7.54-.01-1.54.35-1.85,1.89-5.23,2.79-3.39.91-3.68-3.56-4.29-7.16-.61-3.6.16-4.44-3.68-4.23-3.85.21-4.47,3.29-4.47,5.96,0,2.67.76,4.5,1.52,6.99.76,2.49,2.77,1.5,7.38,1.78,4.61.28,2.76,4.17,4.6,6.95,1.84,2.78,2.76,5.51,2.29,6.81-.46,1.31-6-.37-8.14-3.61-.94-1.42-4.99-5.54-8.43-7.74-3.79-2.43-5.06-2.14-5.81-5.48-.75-3.34-.24-4.77.52-8.02.77-3.25,4.31-5.59-.24-5.87-4.55-.28-8.35-1.61-10.89,3.36-2.54,4.97-2.04,9.03-3.31,10.41-1.27,1.39-1.78,5.02-6.84,5.07-5.06.06-4.04-5-8.34-3.8-4.3,1.2-4.3.1-8.36,3.88-4.06,3.78-4.82,4.83-4.57,8.5.25,3.68.5,5.15,3.27,8.25,2.78,3.1,3.79,4.62,7.58,5.95,3.79,1.33,4.8,5.05,5.29,10.2.5,5.15-.01,5.49.74,8.83.72,3.18.08,1.32,3.27,7l6.84.33,37.73,1.81c.78-3.04.82-6.05-.02-7.32ZM825.32,404.45c4.79-1.85,5.32-1.39,6.39-3.7,1.06-2.31,2.13-5.08,2.13-9.7s-3.19-8.78-.53-10.16c2.66-1.39,9.05-3.7,9.05,2.31s-.53,10.16,2.13,14.32c2.66,4.16,6.92,2.77,7.45,6.47.53,3.7,2.66,4.62,5.85,1.85,1.7-1.47,3.26,1.6,4.79,1.93,3.5.76,9.63,0,10.5-4.18.87-4.18,2.19-5.7,3.06-9.5.87-3.8,1.31-7.22,2.62-8.36,1.31-1.14,2.62,0,4.81-3.8,2.19-3.8,1.75-7.6,5.69-8.36,3.94-.76,8.75-1.52,10.07.38,1.31,1.9,3.06,6.46,5.25,2.66,2.19-3.8,5.25-6.08,6.56-4.94,1.31,1.14.88,4.18,2.19,7.6,1.31,3.42,4.38,9.12,6.13,11.4,1.75,2.28,6.13,2.28,6.13-.38s-2.19-9.12-1.31-10.64c.87-1.52,3.5-4.94,6.57-3.8,3.06,1.14,3.06,7.6,3.5,9.5.43,1.9,3.06,5.7,4.37,1.14,1.31-4.56,1.75-6.84,1.31-10.26-.17-1.32.31-2.63,1.07-3.86,1.67.79,4.97.84,8.27,1.91,3.1,1.01,5.15.03,6.39-1.1-7.6-9.75-9-24.48-7.35-36.62,1.4-10.45,4.43-20.82,10.58-29.36-1.76-1.9-4.04-5.24-8.18-7.94-5.76-3.75-8.64.63-12.96,4.38-4.32,3.75.72,3.75,3.6,6.88,2.88,3.13,4.32,4.38,5.76,8.75,1.44,4.38,0,5-2.16,10.63-1.96,5.1-3.27,12.85-3.27,15.18,0,5.32-4.37,11.4-5.69,10.26-1.31-1.14-2.19-4.94-2.19-9.5s-4.38-7.6,0-11.4c4.37-3.8,7-4.18,6.13-7.6-.87-3.42-1.31-6.08-3.07-9.12-1.75-3.04-4.37-6.08-8.31-3.42-3.94,2.66-2.62,3.04-.87,7.6,1.75,4.56,4.37,9.88.44,11.4-3.94,1.52-5.25,0-7,.76-1.75.76-2.62,3.42-7.44,5.7-4.81,2.28-6.56,6.84-7,1.52-.43-5.32,0-6.46-1.75-9.5-1.75-3.04-.87-4.18-5.69-3.42-4.82.76-13.13-5.32-6.57-7.6,6.57-2.28,9.19,1.14,7.88-5.7-1.31-6.84-4.37-5.7-4.37-10.64s4.37,2.28,3.94-6.46c-.44-8.74-.87-9.12-4.37-7.22-3.5,1.9-1.75,2.28-5.69,8.36-3.94,6.08-8.75,4.56-4.81,7.6,3.94,3.04,4.37,1.52,4.81,4.56.44,3.04-3.06,3.04-7.44,3.8-4.37.76-.87-1.14-4.81,3.42-3.94,4.56-5.25,5.7-5.25,1.9s1.75-4.56,0-7.6c-1.75-3.04-.44-6.84-3.5-6.84-.79,0-7.58-4.15-11.88-3.14-5.85,1.39-6.39,3.23-10.11,8.32-3.72,5.08-5.85,11.55-9.58,11.55s-9.58-4.62-12.24-6.01c-2.66-1.39-2.13-.46-4.79,3.23-2.66,3.7-8.51,7.39-10.64,4.62-2.13-2.77-9.58-20.33-10.64-10.63,0,0,2.13,6.47,2.13,12.94s-1.6,7.39,1.6,9.7c3.19,2.31,9.58,2.77,11.17,5.08,1.6,2.31-1.06,4.16-3.73,10.16-2.66,6.01-3.72,5.55,0,10.63,3.73,5.08,7.98,8.32,7.98,12.94s-.53,11.09-3.19,11.09-8.51-5.08-10.64-9.24c-2.13-4.16-7.98-8.32-13.84-6.93-5.85,1.38-3.19-12.02-4.79-13.4-1.6-1.39-6.39.46-9.05,6.93-2.66,6.47,3.19,11.55-4.26,17.1-1.28.95-2.44,1.77-3.5,2.52-.77-.15-1.44-.28-1.71-.52-.99-.86-.99-4.9-3.32-7.2-2.32-2.3-3.32-6.62.66-10.94,3.98-4.32.99-2.01,0-8.06-.99-6.05,0-4.61,3.65-9.79,3.65-5.18,1.33-5.47.99-9.21-.33-3.74,0-2.88-1.33-6.62-1.33-3.74-2.65-1.44-3.98-.58-1.33.86-.33,11.52-2.65,12.09-2.32.58-2.32,2.02-3.98,4.61-1.66,2.59-1.33,4.03-3.98,4.89-2.65.86-3.65-5.47-4.31-9.5-.66-4.03-1.66-3.17-3.32-7.77-1.66-4.61,1-2.59,3.98-6.05,2.98-3.45,1-2.59,1.33-7.49.33-4.89-1.66-2.59-1.33-7.48.33-4.89,1-5.47.66-8.93-.33-3.45,0-2.59-.66-6.05-.66-3.45-3.31-2.02-5.3-2.02s-1.66.58-1.66.58c0,0-1.99,5.47-3.98,6.62-1.99,1.15-2.32-1.15-3.32-4.03-1-2.88-1-1.44-3.65-1.73-2.65-.29-2.65,1.44-2.32,3.17.33,1.73,0,0,0,.86s1.33,2.3,2.65,5.47c.92,2.19.57,3.69.15,5.35-.4-.93-.95-1.76-1.1-2.54-.38-2-1.15-2.34-3.84-3.34-2.69-1-4.61-1.33-4.61-1.33,0,0-7.3,2.67-10.37,4-3.07,1.34-6.53,4-8.07,6.01-1.54,2-3.84.33-7.3-.33-3.46-.67-3.07-2.67-4.99-3-1.92-.33-2.69.33-5.76-.33-3.07-.67-3.07-2.34-3.84-5.01-.77-2.67,0-5.67-1.54-10.34-1.54-4.67-3.46-2-5.76-.33-2.3,1.67-.77,3-.77,5.34s1.15,5.67,1.92,7.67c.77,2,.38,4.34,3.07,12.34,2.69,8.01-.77,2.33-2.31,5.34-1.54,3-.77,5.34.38,9.67,1.15,4.34,3.07,4.34,4.99,7.34,1.92,3,.77,2.67-1.15,7.67-1.92,5.01-3.46,2.33-5.38,4.67-1.92,2.33-1.15,3.67-.77,5.67.38,2,1.54,5.67,2.69,8.34,1.15,2.67-1.54,1.67-4.23,1.67s-2.3-1.67-2.3-3.67-1.15-5.67-1.15-7.67-1.92-3-3.46-2c-1.54,1-1.54,4.34-2.3,6-.77,1.67-1.15,3,.77,6.67,1.92,3.67,2.31,5,2.31,5,0,0,.77,7,1.92,11.01,1.15,4,0,5.34-.38,9.34-.31,3.22-.62,3.42-.53,5.11l16.82.8c1.6-8-1.08-3.98-6.3-6.25-5.38-2.33-.38-2.33,0-7.34.38-5,0-6.34.77-8,.77-1.67,3.07.33,5.38-.67,2.31-1,.38-2.67,2.69-8,2.3-5.34,1.54-2.34,4.23-5.01,2.69-2.67,1.54-3.34,1.15-6.67-.38-3.34-.77-3.67.77-7.01,1.54-3.34,2.31-3,4.99-7.34,2.69-4.34.38-1.67,1.15-6.34.77-4.67,1.54-1.67,3.84-3,.36-.21.72-.41,1.08-.61,1.03,2.71,2.08,5.7,2.6,8.54.99,5.47-.33,6.04-.66,8.35-.33,2.3-1.66,3.17-.99,5.76.66,2.59,3.65,1.73,4.97,3.74s-.33,4.32-3.31,6.33c-2.98,2.02.99,2.88,2.32,5.18,1.33,2.3,1.66,4.03,1.66,6.91s-3.98,1.15-4.64.29c-.66-.86-.99-3.17-3.32-2.88-2.32.29-1.33,3.45-1.66,6.05-.33,2.59,2.22,2.96,1.66,4.32-1.66,4.03-5.64.86-7.63.58-1.99-.29-.99,2.88-.66,4.03.33,1.15,1.33,5.47,3.32,8.35.3.44.51.9.66,1.36l4.39.21c-.11-.49-.07-1.01.26-1.57,1.33-2.3,3.31-3.17,4.97-2.3,1.66.86,3.31,2.88,6.63,2.02,3.32-.86-.33-4.03-.33-5.76v-8.06c0-4.03,1-4.61,2.65-8.35,1.66-3.74,1.66-3.45,2.98-5.18,1.33-1.73,1-4.9-.33-7.49-1.33-2.59.33-3.17.99-6.34.66-3.17-1.99,0-5.64-2.01-3.65-2.02,1.66-1.73,3.65-1.73s1.66-.86,1.66-3.74,2.98-.86,4.97.86c1.99,1.73.66,1.73,3.98,1.73s4.31-1.15,9.29-1.44c4.97-.29,2.65,1.73.66,4.03-1.99,2.3-6.3,1.73-10.61,2.59-4.31.86-3.32,1.44-2.65,3.17.66,1.73.33,1.44,1.99,5.76,1.66,4.32.33,4.89-2.65,8.06-2.98,3.17-2.65,3.74-2.32,7.2.33,3.45,2.98,0,8.29-.29,5.3-.29.66,3.45-1.66,6.33-2.32,2.88-2.98,3.17-3.65,7.77-.66,4.61-2.98,3.75-3.32,7.2,0,.03,0,.05,0,.07l5.71.16c.63-1.47,1.07-3.44,1.59-5.42,1-3.74,2.98-4.03,5.97-7.48,2.98-3.45,2.32-4.61,5.3-6.34,2.98-1.73.33-1.15,1.33-4.89.99-3.74.33-4.03.66-7.77.33-3.75.99-2.02,5.3-1.73,4.31.29-.33,3.16.33,6.33.66,3.17,2.32,2.3,4.64.29,2.32-2.02,3.98,0,6.96.86,2.98.86,0,4.03-2.65,6.62-2.65,2.59-4.31,2.88-4.31,4.9s3.28,2.87,7.55,2.59c-.16,4.54-2.6,8.7,3.15,9.11,4.46.32,5.55,2.22,7.07,4.13l8.86.25c.49-.52,1.02-1.07,1.64-1.6,3.19-2.77,4.79-.92,8.51-1.85,3.72-.93,2.13-4.62,4.79-6.93,2.66-2.31,7.45-3.23,9.58.46,2.13,3.7,3.19,6.47,4.26,10.63,0,.03.02.07.03.1l12.28.35c-.14-2.28-.6-3.17,3.13-4.61ZM999.23,319.11c.17-1.22.32-2.59.53-4.21.72-5.62,0-7.5-2.16-11.88-2.16-4.38-3.6-5-10.08-6.25-4.93-.95-5.7-.45-8,.67,2.59.43,5.18,1.43,7.65,3.07,6.25,4.41,9.96,11.16,12.06,18.6ZM1004.08,365.53c-.72-10.63,0-7.5-1.44-11.88-.67-2.02-1.18-3.11-1.82-4.31-1.53,9.76-5.22,19.13-11.86,25.54-4.99,5.04-11.58,7.81-18.02,7.29-.51,9.02-8.01.9-11.49,2.11-3.6,1.25-2.88,5-2.88,7.5s2.66,6.52,6.05,9.61c.57-.71,1.19-1.39,1.84-2.02l.09-.09c4.26-4.15,10.95-6.44,16.64-4.49,5.94,1.95,9.43,7.89,11.36,13.56.05.14.09.28.14.43,7.94-2.38,5.42-12.13,3.47-13.25-2.16-1.25-3.6-1.25-7.92-6.25-4.32-5,.72-11.88,4.32-12.5,3.6-.63,4.32,5,4.32,8.13,0,2.55,5.74,10.08,8.64,11.76v-18.86c-.48-2.83-.96-5.19-1.44-12.28ZM504.46,712.2c-3.48.54-8.03-1.23-7.86-5.49.17-4.26.75-7.18,2.06-11.26,1.31-4.09,2.18-8.46-.53-10.16-2.7-1.7-5.69-1.94-8.36,1.29-2.66,3.24-1.36,5.15-6.39,4.17-5.04-.99-5.24-1.66-7.37-.27-2.13,1.39-4.51,3.17-6.97,7.08-2.46,3.91-1.97,9.13-4.96,8.89-2.99-.25-9.63-1.69-6.43-6.77,3.2-5.08,5.86-8.32,5.83-13.26-.04-4.94-4.38-6.03-2.86-9.44,1.52-3.41.21-5.33-3.97-4.68-2.22.34-1.9-3.09-3.02-4.18-2.56-2.51-8.15-5.13-11.11-2.06-2.97,3.07-4.89,3.66-7.65,6.41-2.76,2.75-4.95,5.41-6.67,5.68-1.72.27-2.22-1.4-6.1.65-3.88,2.05-5.53,5.5-9.27,4.05-3.74-1.46-8.22-3.38-8.32-5.68-.1-2.31.85-7.1-3.03-5.05-3.87,2.05-7.68,2.35-8.19.69-.51-1.66,1.48-4,2.19-7.6.71-3.59,1.15-10.05.89-12.91-.27-2.86-3.97-5.19-5.39-2.94s-3.01,8.88-4.55,9.7c-1.55.82-5.6,2.32-7.58-.28-1.99-2.6,1.45-8.06,2.1-9.91.64-1.84.44-6.45-3.1-3.29-3.54,3.16-5.12,4.86-6.58,7.98-.56,1.2-1.67,2.06-2.96,2.7-1-1.56-3.76-3.36-5.98-6.02-3.88-4.65-8.37-1.57-8.37-1.57,0,0-9.76,1.99-11.47-2.05-1.71-4.03-.44-4.71,5.22-13.7,5.66-8.99,7.7,2.63,11.41,3.49,3.71.86,5.1-2.7,6.43-4.81,1.33-2.12,1.22-7.35-.16-11.92-1.38-4.56-3.32-2.83-6.98-5.13s-2.11-2.06-3.21-5.71c-1.11-3.65-2.38-2.97-3.49-6.62-1.1-3.65-4.87-3.07-4.87-3.07-10.08-5.61-13.97,5.98-12.81,8.19,1.16,2.21,2.38,2.98,3.37,9.51.99,6.53-6.94,9.67-10.32,8.28-3.38-1.39-.99-6.53.67-9.18,1.67-2.65.01-16.24-2.2-15.42-1.77.65-3.05,3.96-5.03,8.42l-.46,1.95-3.81,14.08-2.92,10.27-3.1,10.89-4.69,13.28-4.07,11.6-5.76,16.65-3.92,10.38c2.18,1.4,3.25.86,7.09,1.66,5.26,1.1,4.27-5.44,10.53-5.93,6.26-.49,6.7,4.22,8.2,5.9,1.5,1.68.66,7.06,3.54,13.3,2.88,6.24,7.64,4.07,13.3,3.2,5.65-.88,1.39-3.56.62-7.74-.77-4.18-1.33-6-.21-10.48,1.11-4.47,2.66-4.23,7.49-7.84,4.37-3.27,9.61-9.13,10.85-11.1,2.83-4.5,9.77-7.32,10.28-5.65.5,1.66-.78,5.35-3.21,9.2-2.43,3.86-.34,8.76-6.07,9.65-5.73.89-8.15-.19-9.23,3.17-1.08,3.36-2.13,5.85-2.26,9.35-.14,3.5.47,7.47,5.22,7.32,4.75-.15,3.84-1.17,4.79-5.97.95-4.79,1.56-10.69,5.7-9.88,4.14.81,4.44,2.8,6.33,3.08,1.89.29,4.04-1.5,9.33-.86,5.29.63,9.2-2.29,6.74,2.44-2.47,4.73-3.44,5.47-3.58,8.97-.14,3.5-1.49,4,2.99,5.92,4.48,1.92,8.28,11.49,1.51,9.93-6.77-1.57-7.17-5.86-9.7.63-2.53,6.49.67,7.16-1.96,11.34-2.63,4.18-2.49-4.26-6.77,3.37-4.29,7.63-4.12,8.18-.14,8.44,3.98.26,2.69-1,9.27-4.05,6.57-3.05,9.84.8,8.12-3.87-1.71-4.67-2.89-3.62-1.65-6.42,1.25-2.81,4.21-.94,8.32.75,4.11,1.69.13,1.43,5.9-.33,5.76-1.76,7.48-2.03,5.45,1.19-2.02,3.22-3.91,2.93-4.05,6.43-.14,3.51-3.27,6.02-.68,7.65.67.42,4.2,7.55,8.39,8.98,5.69,1.94,7.13.66,12.99-1.66,5.86-2.32,11.1-6.66,14.26-4.68,3.15,1.98,5.65,9.01,7.16,11.6,1.51,2.59,1.56,1.53,5.77-.19,4.22-1.71,11.14-1.72,11.47,1.76.33,3.48-2.72,22.31,3.35,14.66,0,0,1.64-6.61,5.09-12.08,3.45-5.48,5.29-5.41,3.82-9.06-1.47-3.65-6.63-7.45-6.75-10.25-.12-2.81,3.11-2.95,8.57-6.62,5.45-3.67,6.11-2.71,5.66-9-.45-6.29-2.33-11.29.13-15.2,2.46-3.91,6.36-9.1,8.61-7.68,2.25,1.42,4.5,8.84,4.09,13.49-.41,4.65,2.33,11.29,8.02,13.23,5.69,1.95-3.7,11.87-3.08,13.89.61,2.02,5.65,3.01,11.35-1.05,2.4-1.71,3.39-4.01,4.42-6.16l1.41-6.12,1.68-8.68,3.19-13.55,1.77-5.58.1-.37c-.81-.56-1.72-1.18-3.07-1.63-3.65-1.2-4.26,2.78-7.74,3.32ZM586.46,474.75c.87-1.23,1.3-2.4,1.72-5.37.66-4.61,2.98-3.75,3.32-7.2.33-3.46-.99-2.88-3.32-2.59-2.32.29-2.98,4.03-3.98,7.77-1,3.74-2.98,4.03-5.97,7.48-.27.31-.49.59-.71.86l3.85-.48,5.08-.49ZM616.37,466.21c-1.99-2.88,0-6.62-3.65-7.49-3.65-.86-3.65,1.73-3.65,2.59s3.32,2.59,1.99,4.89c-1.33,2.3-3.31,3.17-4.97,2.3-1.66-.86-3.31-2.88-6.63-2.02-3.32.86.33,4.03.33,5.76v1.44h19.66c-.47-1.74-1.44-5.1-3.08-7.49ZM338.44,569.75c5.04-1.88.72-6.88,5.76-10.63,5.04-3.75,7.92,0,10.08.63,2.16.62,4.32,5.62,10.08,9.38s8.64-.63,12.96-4.38c4.32-3.75-.72-3.75-3.6-6.88-2.88-3.13-4.32-4.38-5.76-8.75-1.44-4.38,0-5,2.16-10.63,1.96-5.1,3.27-12.85,3.27-15.18,0-5.32,4.37-11.4,5.69-10.26,1.31,1.14,2.19,4.94,2.19,9.5s4.38,7.6,0,11.4c-4.37,3.8-7,4.18-6.13,7.6.87,3.42,1.31,6.08,3.07,9.12,1.75,3.04,4.37,6.08,8.31,3.42,3.94-2.66,2.62-3.04.87-7.6-1.75-4.56-4.37-9.88-.44-11.4,3.94-1.52,5.25,0,7-.76,1.75-.76,2.62-3.42,7.44-5.7,4.81-2.28,6.56-6.84,7-1.52.43,5.32,0,6.46,1.75,9.5,1.75,3.04.87,4.18,5.69,3.42,4.82-.76,13.13,5.32,6.57,7.6-6.57,2.28-9.19-1.14-7.88,5.7,1.31,6.84,4.37,5.7,4.37,10.64s-4.37-2.28-3.94,6.46c.44,8.74.87,9.12,4.37,7.22,3.5-1.9,1.75-2.28,5.69-8.36.14-.22.29-.41.43-.61l1.18-9c-1.07-.53-1.34-.69-1.61-2.55-.24-1.66.7-2.41,2.31-2.88l3.34-25.61,3.01,2.42,3.54,1.89,5.78,2.95,9.8,4.13,17.24,5.43,5.1,1.26c.75-.63,1.55-1.01,2.44-1.01,3.73,0,9.58,4.62,12.24,6.01,2.66,1.39,2.13.46,4.79-3.23,2.66-3.7,8.51-7.39,10.64-4.62,2.13,2.77,9.58,20.33,10.64,10.63,0,0-2.13-6.47-2.13-12.94s1.6-7.39-1.6-9.7c-3.19-2.31-9.58-2.77-11.17-5.08-1.6-2.31,1.06-4.16,3.73-10.16,2.66-6.01,3.72-5.55,0-10.63-3.73-5.08-7.98-8.32-7.98-12.94s.53-11.09,3.19-11.09,8.51,5.08,10.64,9.24c2.13,4.16,7.98,8.32,13.84,6.93,5.85-1.38,3.19,12.02,4.79,13.4.38.33.95.47,1.63.41v-13.46l2.01-6.26,3.31-3.66,4.37-4.49,6.37-4.01,6.61-1.65,6.88-.67c.17-.33.27-.7.27-1.17,0-2-3.28-2.87-7.55-2.59.16-4.54,2.6-8.7-3.15-9.11-6.39-.46-5.85-4.16-9.58-6.47-3.72-2.31-4.79.92-7.98,3.7-3.19,2.77-4.79.92-8.51,1.85-3.72.93-2.13,4.62-4.79,6.93-2.66,2.31-7.45,3.23-9.58-.46-2.13-3.7-3.19-6.47-4.26-10.63-1.06-4.16-2.66-8.32-5.85-8.32s-5.85,1.39-6.39,5.54c-.53,4.16,1.6,5.08-3.19,6.93-4.79,1.85-5.32,1.39-6.39,3.7-1.06,2.31-2.13,5.08-2.13,9.7s3.19,8.78.53,10.16c-2.66,1.39-9.05,3.7-9.05-2.31s.53-10.16-2.13-14.32c-2.66-4.16-6.92-2.77-7.45-6.47-.53-3.7-2.66-4.62-5.85-1.85-1.7,1.47-3.26-1.6-4.79-1.93-3.5-.76-9.63,0-10.5,4.18-.87,4.18-2.19,5.7-3.06,9.5-.87,3.8-1.31,7.22-2.62,8.36-1.31,1.14-2.62,0-4.81,3.8-2.19,3.8-1.75,7.6-5.69,8.36-3.94.76-8.75,1.52-10.07-.38-1.31-1.9-3.06-6.46-5.25-2.66-2.19,3.8-5.25,6.08-6.56,4.94-1.31-1.14-.88-4.18-2.19-7.6-1.31-3.42-4.38-9.12-6.13-11.4-1.75-2.28-6.13-2.28-6.13.38s2.19,9.12,1.31,10.64c-.87,1.52-3.5,4.94-6.57,3.8-3.06-1.14-3.06-7.6-3.5-9.5-.43-1.9-3.06-5.7-4.37-1.14-1.31,4.56-1.75,6.84-1.31,10.26.17,1.32-.31,2.63-1.07,3.86-1.67-.79-4.97-.84-8.27-1.91-5.76-1.87-7.92,3.13-7.92,3.13,0,0-7.2,6.88-10.8,4.38-3.6-2.5-2.88-3.75-2.88-14.38s7.92-1.87,11.52-3.13c3.6-1.25,2.88-5,2.88-7.5,0-2.5-2.88-6.88-6.48-10-3.6-3.13-4.32-.63-8.64-.63s-2.88-.62-5.76-3.13c-2.22-1.93-3.16-1.63-4.8-2.54l3.03,7.97,2.66,11.98-.24,17.65-.71,10.27-1.24,14.4-2.07,15.82-2.54,14.7-2.01,10.65-1.33,8.02c5.57.98,5.15-.24,9.96-2.03ZM646.16,486.17l.78.82c-.33-2.08-.76-4.45-1.27-6.22-1.15-4,0-5.34.38-9.34.38-4,.77-3.34.38-6.67-.38-3.34-2.69-4.67-5.76-6.67-3.07-2-3.07-2.67-6.53-2.67s-2.3.33-4.22,9.34c-1.92,9.01.77,4.67,6.15,7.01,4.57,1.99,1.65,2.28.43,5.41l3.76,2.86,5.9,6.14Z"/>
  <path id="c2" class="cls-1" d="M443.42,388.52s.01-.02.02-.02l-1.11-.09c.43.39.8.5,1.1.11ZM530.34,343.61c-.77-.54-2.93-2.15-5.28-3.89,1.74,5.39,4.34,8.88,5.96,8.62,1.02-.16,2.15-1.42,2.92-2.78-2.17-.05-3.23-.19-3.6-1.96ZM558.44,278.48c-1.44-3.23-3.51-.61-7.04-.05-3.52.56-2.65,2.33-4.14,5.54-.4.86-.49,1.67-.4,2.44,3.97,0,8.44-.01,13.17-.02-.69-1.81-.23-4.85-1.59-7.92ZM439.05,384.68c-2.04-1.77-2.63-1.19-4.71,2.9-.26.51-.44.94-.54,1.29l.37-.08,2.73-.39h5.43c-.84-.75-1.93-2.55-3.27-3.72ZM348.98,384.05c1.28-1.26,1.07-1.48,2.14-3.17,1.07-1.69.02-3.39-.81-5.3-.84-1.91-1.25-4.04-1.66-4.89-.42-.85-.84-1.07-2.32-1.92-1.48-.86-1.28,1.26-2.34,2.1-1.07.84-2.33-.23-2.75-1.29-.42-1.06-.19-3.82-.82-4.46-.63-.64-.63-.85-2.53-1.5-1.9-.65-1.06.63-1.71,2.32-.65,1.69-1.7.41-3.39-.87-1.69-1.28-1.04-2.34-2.31-3.19-1.27-.86-2.12.41-2.97,1.04-.85.63,1.45,5.1,1.23,7.21-.23,2.12-.01,1.91-.24,5.09-.23,3.18.2,2.54,1.46,3.61,1.27,1.07.84.85,2.31,2.56,1.47,1.7-.44,2.75-1.71,2.32-1.27-.43-1.06,0-2.33.41-.69.22-.88.46-.91.99l20.83,1c.01-.72.29-1.52.85-2.07ZM567.39,388.74c2.93-.57,2.95-2.62,3.26-5.84.31-3.22-2.6-5.29-4.66-4.43-2.06.87-3.56,6.42-6.77,4.35-3.21-2.07-1.75-1.18-2.6-6.47-.85-5.28,1.51-6.14,2.69-8.48,1.19-2.34,1.75.6,3.79,3.83,2.03,3.24,4.11-.85,5-2.9.89-2.05-1.14-4.4-4.05-7.94-2.91-3.54-3.5-2.37-6.12-5.32-2.62-2.95.61-4.39,2.69-8.19.23-.43.44-.76.63-1.04-9.37-.27-18.7-.53-26.07-.74-.46-.01-.87-.02-1.25-.03-.77,1.36-1.89,2.62-2.92,2.78-1.62.26-4.22-3.24-5.96-8.62-2.5-1.85-5.21-3.84-6.7-4.87-10.97-1.11-50.72.33-61.66-4.19-1.18-.78-2.17-2.31-2.99-3.37-1.03-1.43-1.97-3.01-2.35-4.7-.86-4.49,5.55-3.95,6.28-7.64.31-1.93-.15-4.09.42-5.99.6-2.55,3.12-2.95,5.13-3.2,1.2.08,33.37.77,40.07,1.14l.06.02c6.45,1.87,12.56,6.5,18.44,9.47,1.59.79,3.9,2.06,5.85,3.12-.05-.38-.13-.81-.21-1.65-.27-2.93-2.9-4.12-4.94-7.07-2.03-2.94-3.17-8.23-5.2-11.46-2.03-3.24-4.66-5.31-3.75-8.82.9-3.51,4.1.61,8.76,5.33,4.66,4.72,2.94-1.15.64-9.08-2.29-7.93,2.4-9.07,3.86-7.01,1.45,2.06,4.35,6.48,5.83,5.31,1.47-1.16,1.49-4.39,2.39-7.31.9-2.93.32-3.52-1.13-7.33-.01-.04-.03-.07-.04-.11l-67.95-1.1c-1.26,1.87.32,1.55.85,4.58.56,3.23,1.72,5.87,5.21,9.41,3.5,3.54,1.43,5.29-1.49,4.09-2.92-1.19-1.77,1.45-2.66,3.21-.89,1.75-4.1-.32-4.96-3.26-.86-2.94-2.02-5.29-3.19-5.59-1.08-.28-3.27-.31-4.31-1.4-1.04-1.09,0-1.44-.32-5.06-.22-2.41-.12-4.18.07-6.17l-71.51-1.15-40.37,5.72c0,.05-.02.1-.02.16-.73,4.69-1.41,1.8-4.2,2.86-2.79,1.07-6.96-.77-10.13,3.55-3.16,4.31,5.89,5.82,8.34,2.94,2.46-2.87,6.62.4,11.49,1.52,4.87,1.11,5.21,2.2,8.35,2.22,3.14.02,2.79-.7,3.15-1.79.36-1.08,2.8-1.79,3.85-2.5,1.05-.72,3.15-1.42,7.67-.67,4.52.75.67,3.62.67,3.62,0,0,2.42,2.54,5.56,1.84,3.14-.7,4.19-1.42,7-4.29,2.81-2.87,2.46-3.23,2.46-3.23,0,0,3.48.74,5.9,3.29,2.42,2.54,1.73,1.46,4.86,3.28,3.12,1.83,2.07,3.62,4.14,5.81,2.08,2.18,2.44.02,7.67-1.4,5.24-1.41.36-2.16,1.08-4.69.71-2.52,1.41-3.24,2.48-5.76,1.06-2.52,1.74.01,4.18.75,2.43.74,1.04,1.45,2.43,1.46,1.39,0,2.07,2.9,3.8,4.72,1.73,1.82.68,2.53-.04,6.86q-.72,4.33-.74,7.22c-.02,2.89,1.38,1.82,2.06,5.43.67,3.62,1.03,1.81,2.42,3.27.93.98,1.57-.5,2.84-2.23,0,0,0,0,0,.01.28,1.76,2.32,3.83,3.49,3.83,1.17,0,1.46,1.18,2.91,3.83,1.45,2.65.86,3.52.54,6.74-.31,3.22-.6,2.93-.93,7.61-.32,4.69.27,4.1,1.14,5.28.87,1.18,1.16,1.77,2.88,8.52,1.71,6.75-1.5,5.56-2.68,5.84-1.17.29-2.34-.89-3.81-.02-1.47.87-.31,2.34-.92,5.86-.61,3.51.27,3.81,1.71,8.22,1.44,4.41,2.33,1.48,4.68,1.5,2.35.02,2.94-1.74,5-2.02,2.05-.28,1.75,1.18,1.14,5.58-.61,4.39-.31,2.64-1.78,3.51-1.47.87-2.65,2.62-2.09,5.26.57,2.64,2.04,1.48,3.2,3.83,1.15,2.34-.61,6.11-1.5,7.29l4.63.36,8.02.88,5.28,5.53.54,1.01.14,1.23c.38-.11.79-.22,1.25-.35q2.94-.86,4.99-1.14c2.05-.28,2.06-1.45,1.79-4.38-.28-2.93-1.7-8.8-3.73-12.63-2.03-3.82.9-3.8,2.69-8.19,1.79-4.38,1.5-5.56.64-8.5-.86-2.94-4.38-2.96-6.14-2.97-1.76-.01-4.1-.91-5.85-1.8-1.75-.89.01-2.05,1.21-5.27,1.19-3.22,2.34,1.48,5.55,2.67,3.22,1.19,4.11-1.15,4.42-2.9.3-1.76-.56-3.52-2.89-5.88-2.33-2.36-.86-2.35-.84-5.28.02-2.93,3.24-2.62,5.28-.85,2.04,1.77,2.03,2.94,3.48,5.3,1.45,2.35,1.45,2.65,4.36,6.18,2.91,3.54,4.69.03,7.33-.25,2.64-.28,2.06-.57,4.99-2.02q2.94-1.45,3.82-1.44c.88,0,3.52.02,5.57.33,2.05.31,4.09,1.78,6.43,2.09,2.34.31,2.65-2.33,5.01-4.36,2.36-2.04,1.46.3,2.91,3.54,1.44,3.23-.31,2.64-2.66,4.09-2.35,1.45-3.81.27-4.7,1.44-.89,1.17-.3,1.76-.32,3.81-.01,2.05-.31,2.64-2.66,4.09-2.35,1.45-3.22-.31-5.27-1.21-2.05-.89-5.27-.62-7.04.25-1.76.87-.59,1.17-1.78,3.21-1.18,2.04-3.22-.31-5.27-1.21-2.05-.89-1.45-2.06-3.2-3.24-1.75-1.18-2.05.28-3.24,2.03-1.18,1.75-1.2,4.97-.92,6.15.29,1.17,2.03,3.82,4.64,7.06,2.62,3.24,1.45,1.77,2.61,4.41,1.16,2.65.57,2.64-.32,4.39-.89,1.75-1.48,2.04-2.68,6.43-1.2,4.39.57,2.06,2.03,3.82.66.81.77,1.68.61,2.66l.35.15,1.86.79,20.22-.21.55-.43.39-.31.54-.17.96-.59.54-.52.55-.6,1.5-.92c.3-2.94,1.37-4.63,2.43-4.63,1.47,0,3.2,3.83,8.76,4.45,5.57.62.9-3.22,3.27-7.01,2.37-3.8,3.22.02,3.21,1.49,0,.78-.44,3.23-1.25,6.27l35.04,1.68c-.27-1.05-.28-2.18-.4-3.92-.27-3.81,1.78-3.8,4.72-4.37ZM999.91,431.99l.29-2.44,1.24-10.59,2.21-11.9c-.58-.06-1.1.15-1.82.8-2.14,1.93-1.07,3.55-4.27,5.15-2.19,1.1-2.55,1-3.36,1.55,1.32,6.97.95,14.17-1.15,21.06-1.02,3.37-2.36,6.68-4.19,9.7.05-.03.1-.05.15-.08,2.14-.97,1.42-1.93,4.27-1.61.8.09,1.34.44,1.78.81l4.6-10.3.25-2.13ZM929.13,291.74c-.22,3.22-.22,3.41-1.51,7-1.3,3.59-2.17,1.32-1.52,6.05.65,4.73.43,1.7,1.3,6.05.87,4.35.22,3.78.87,5.86.65,2.08,1.95,2.84.22,3.4-1.73.57-2.6.38-2.6,2.46s-.43,2.46.87,2.84c1.3.38,1.08.76,2.38.38,1.3-.38,3.25.57,1.73,2.08-1.51,1.51-1.08,1.32-2.38,2.27-1.3.95-1.73.38-1.51,3.21.22,2.84,0,2.65.22,4.54.22,1.89-2.16,5.86-1.3,6.43.87.57,1.73,1.7,3.03.95,1.3-.76.65-1.7,2.38-2.84,1.73-1.13,2.81-2.27,3.46-.76.65,1.51-.22,2.65,1.73,2.08,1.95-.57,1.95-.76,2.6-1.32.65-.57.43-3.03.87-3.97.43-.95,1.73-1.89,2.81-1.13,1.08.75.87,2.65,2.38,1.89,1.52-.76,1.95-.95,2.38-1.7.33-.58.66-1.82,1.19-3.13.33-2.09.73-4.17,1.21-6.23-.85-1.24-.76-1.49-1.96-2.55-1.3-1.14-1.08-3.41.43-3.41s1.52,1.32,3.03-.19c.12-.12.22-.22.32-.33.49-1.48,1.04-2.94,1.64-4.38-.05-1.67-1.16-2.45-1.74-3.99-.65-1.7-.22-3.59.65-4.16.86-.57,2.38-1.32,2.81.19.42,1.47.24,1.51,1.41,1.69.78-1.33,1.61-2.63,2.52-3.88l.07-.1c1.35-1.92,2.9-3.58,4.59-4.97-1.14-2.12-2.15-2.63-1.02-4.45,1.3-2.08,3.03-3.4,3.68-4.35.65-.95,1.08-1.51,1.08-3.03s-1.3-4.16.65-4.73c1.95-.57,3.68-.19,4.55.38.86.57,1.51,2.46,2.6,2.46s4.11.19,5.84-.19c1.73-.38,4.11-3.59,4.98-3.78.87-.19,1.95,1.89,2.38,2.84.43.95.43,2.08,1.08,3.78.65,1.7,1.52,3.21,1.52,4.35s-1.73,1.51-2.38,2.65c-.65,1.14,1.08,2.84,2.81,2.08,1.73-.76,4.11-.57,4.55-2.65.29-1.42.58-1.87.74-2.55l-3.56-5.02-3.67-4.38-4.38-2.97-9.78-3.98-12.04.18.53,1.59,1.06,1.77v1.77l-4.25.89-5.84.71-27.05-.57c.24.53.42,1.11.49,1.79.22,2.08,1.08,1.89.86,5.11ZM758.52,398.98c.91-2.35.88-2.92.14-3.71-.74-.79-1.99.1-2.83.59-.84.49-.46-.76.05-2.43.5-1.67,1.2-2.03.16-3.13-1.04-1.1-1.51-2.15-2.79-2.13-1.28.02-2.89-1.14-3.12.27-.23,1.41.66,2.35-.02,3-.69.65-.72,3.36-3.3,3.12-2.57-.25-3.15-.3-3.97.48-.48.46-.61,1.09-.66,1.74-1.77.48-2.74.92-4.04,1.32-1.95.6-1.87-2.36-.92-3.25.95-.9,4.73.06.89-2.49-3.85-2.54-4.45-2.8-6.74-1.04-2.29,1.76.2,5.15-3.04,2.49-.26-.34-.52-.64-.82-.95-.74-.79-2.2-1.5.18-2.56,2.38-1.06,4.1-.9,5.47-2.2,1.37-1.3,1.92-1.82,1.88-2.97-.02-.44-.12-.85-.12-1.24.11.02.21.04.3.07,1.6.55.65,1.45,4.53-.16,3.88-1.61,5.6-2.83,7.58-2.64,1.98.19,3.29,3.48,4.51-.56,1.22-4.04,1.19-4.83-1.39-5.28-2.58-.44-5.7.45-5.56-.92.14-1.37,1.38-5.01,3.72-5.58,2.34-.57,2.61,1.24,4.73.06,2.12-1.18,2.44-3.13,1.98-4.76-.46-1.63-1.39-.33,1.04-3.46,2.44-3.13,3.18-4.25,4.43-2.54,1.25,1.7.52,3.21,2.17,4.96,1.65,1.74.36,4.19,4.24,2.58,3.88-1.61,4.68-1.13,6.55-3.73,1.87-2.59,3.64-2.62,3.18-4.25-.46-1.63-2.04-1.78-2.68-2.83-.63-1.05-3.66-2.72,1.95-5.55,5.6-2.83,6.19-2.97,7.57-3.04,1.38-.07,1.41.73,4.24-2.37,2.83-3.09,2.44-3.13,4.32-5.32,1.89-2.2,2.04-3.17,4.78-3.7,2.74-.53,3.7-1.03,4.53-.16.82.87,3.59,1.13,4.94.27,0,0,0,0,.01,0-.24,2-.76,3.37.53,3.48,1.92.15.99,1.51,3.82-.18,2.83-1.7,3.11,0,4.98-1.77q1.87-1.77,4.19-4.94c2.32-3.18,2.06-4.39,4.45-4.21,2.39.19,4.75-1.07,5.73-.04.98,1.03.47-.44,2.65.92,2.18,1.37,4.31.33,3.4,2.66-.9,2.32-.88,3.28-2.03,5.35-1.15,2.07-5.04-1.11-2.31,3.65,2.73,4.76,1.57,6.35,4.45,6.57,2.87.22,3.31-1.66,6.68-.44,3.37,1.22,2.18,1.37,5.53,1.63s6.26,2.4,6.26,2.4c0,0-.48-.04-.39,3.8.09,3.84.35,5.06,2.08,7.83,1.73,2.77,5.08,3.03,5.08,3.03,0,0-.82-4.62,2.83-1.7,3.65,2.92,4.65,4.91,4.91,6.13.27,1.22,1.51,3.47,1.05,4.39-.46.92-1.17,1.11,1.03,3.43,2.2,2.33,3.15,1.92,7.27,4.88,4.13,2.95,9.17,4.07,9.01,7.65-.16,3.58,7.14,9.42,7.74,4.43.61-4.98-3.5-6.98-4.75-9.71-1.26-2.73-3.62-1.48-1.06-4.88,2.55-3.4,3.95-5.2,7.06-4.72,3.12.48,6.01,1.66,5.83,4.29-.18,2.62-.64,3.54,1.06,4.87,1.7,1.33,2.65.92,5.03.63,2.38-.29,4.62,3.95,4.62,3.95.34,4.58,1.1,6.8,1.84,7.57.73.78,2.15-.07,3.12.48.97.56,1.69.85,2.9,1.66,1.21.81.81,4.14,4.54.11,3.74-4.02,2.75-5.54,2.75-5.54,0,0-3.17-2.88.41-3.32,3.57-.44,4.01-2.32,6.19-.96,2.18,1.37,2.44,2.11,5.49-.29,3.05-2.4,2.36-1.25,4.46-3.73,2.1-2.47,4.23-3.03,5.38-5.09,1.15-2.07,1.62-2.51-.83-5.1-2.45-2.59-2.63.04-5.31-2.33-2.68-2.36-4.35-2.25-3.91-4.14.44-1.88,1.89-.81.87-3.77-1.02-2.95,2.77-4.58-3.45-4.58-6.21,0-8.35.55-10.96,1.55-2.61,1-4.01,2.32-5.66,3.4-1.65,1.07-3.8,1.14-6-1.18-2.2-2.33-4.12-2.96-3.7-5.32.43-2.36.65-3.06,1.1-4.47.45-1.4,2.13-1.03.4-3.32-1.72-2.29-2.22-3.29-3.68-4.36-1.46-1.07-1.22-1.29-.78-2.69.45-1.4.95-.41.89-2.81-.05-2.4.19-2.14-1.77-4.21-1.96-2.07-3.84-.78-5.28-.89-1.44-.11-3.1,0-3.87-2.22-.77-2.21-.03-1.44.38-4.28.42-2.84.43-2.36.37-4.76-.05-2.4,3.78-2.1-.81-4.14-4.58-2.03-5.76-1.4-7.46-2.25-1.69-.85-2.18-1.37-3.2-4.32-1.02-2.95-1.05-4.39-2.28-5.69-1.22-1.29-2.45-2.59-3.21-4.8-.76-2.22,1.14-2.55-.09-4.32-1.23-1.77-.05-2.4-3.2-4.32q-3.15-1.92-5.32-2.81c-2.17-.89-3.6-.52-6.03-2.62-2.43-2.11-3.65-2.92-5.13-4.95-1.48-2.03-1.5-2.99-4.14-3.44-2.64-.44-4.54-.11-6.71-1-2.17-.89-1.73-2.77-4.58-2.03-2.85.74-5.27-.41-3.3,2.14,1.97,2.55,2.92,2.62,4.13,2.96,1.2.33,2.86-.26,1.97,2.55-.9,2.8-3,4.8-3,4.8,0,0-.17,3.1,2.42,1.63,2.6-1.48,1.12-3.51,3.77-2.58,2.65.92,3.13.96,3.63,1.96.5,1,.1,4.8-1.31,5.65-1.41.85-3.32,1.18-1.14,2.55,2.18,1.37,2.66,1.4,5.04,1.11,2.38-.29,3.34-.22,4.07.56.73.77,1.45.59,1.98,3.03.53,2.44-1.14,2.55,1.29,4.17,2.42,1.63,3.63,1.96,4.59,2.51.97.55,1.93,1.11,2.9,1.66q.97.55,3.14,1.44c2.17.89,3.83.3,3.39,2.18-.44,1.88-.87,3.77-2.54,3.88-1.67.11-3.87-2.22-4.85-3.25-.98-1.03-3.14-1.44-3.11,0,.03,1.44-1.15,2.07,1.04,3.91,2.19,1.85-3.82.18,3.66,3.4,7.48,3.22,8.42,2.81,9.88,3.88,1.46,1.07,3.13.96,3.86,1.74.73.78,2.42,1.15,1.98,3.03-.44,1.88-2.56,2.92-2.05,4.39.51,1.48,1.96,2.07,3.66,3.4,1.7,1.33,2.44,2.11.56,3.88-1.87,1.77-5.72.51-5.72.51,0,0-.23.22-1.96-2.07-1.72-2.29-1.49-2.51-1.77-4.21-.28-1.7,1.95,1.59-.28-1.7-2.22-3.28-4.9-5.65-6.34-5.76-1.44-.11-2.14.55-4.31-.33-2.17-.89-2.38.29-4.1-2-1.72-2.29,1.1-4.47-3.43-4.1-4.53.37-6.21,0-8.4-1.85-2.19-1.85-.54-2.92-3.92-4.62-3.38-1.7-4.32-.81-6.96-1.26-2.64-.44-3.86-1.74-6.31-4.32-2.45-2.59-3.66-3.4-4.67-5.87-1.01-2.48,1.75-7.53,4.14-7.35,2.39.19,2.9,1.66,4.81,1.33,1.9-.33,2.1-2.47.38-4.28-1.71-1.81-2.45-2.59-5.08-3.03-2.64-.44-2.86.26-5.05-1.59-2.19-1.85-2.66-1.41-2.7-3.32-.04-1.92,5.66-3.4.15-4.06-5.51-.67-5.28-.89-7.63.85-2.35,1.73-4.25,2.55-5.42,3.65-1.17,1.11.48.04-1.62,2.51-2.1,2.47-3.26,4.06-5.84,6.02-2.58,1.96-2.09,2.95-3.52,2.84-1.44-.11-2.98-1.73-3.92-2.37-1.01-.69-3.36-.12-5.87,1.02-2.52,1.14-6.11.01-5.59-1.72.52-1.73,3.06-2.48.24-3.93-2.82-1.46-3.12-4.06,1.63-3.6,4.75.45,7.28-.29,9.78-1.84,2.5-1.54,3.36.12,3.64-2.62.29-2.74.6-4.69,1.92-6.35,1.31-1.66,4.34.02,3.02-3.27-.03-.07-.06-.13-.09-.19l-84-1.36c-.26.35-.55.73-.87,1.16-4.31,5.72-.94,6.24-6.16,8.71-5.22,2.47-9.94,2.81-10.99,1.32-1.04-1.48-.2-5.16.93-6.24,1.12-1.06,3.71-3.51,2.97-5.18l-43.92-.71c-.11,1.45.35,2.66,2.37,2.4,3.53-.45,5.84-1.82,5.15.49-.7,2.31.38,4.59-3.66,7.17-4.04,2.58-2.44,3.13-6.03,2-3.59-1.13-1.01-5.64-1.88-7.7-.87-2.06-4.26-2.98-6.14-.78-1.88,2.19-3.21,3.45-1.54,5.99,1.68,2.53,3.12,4.06.44,6.18-2.68,2.12-3.04,2.87-7.58,2.64-4.54-.24-3.09,1.68-6.66.95-3.58-.74-4.35-.42-6.36-1.4-2.01-.98-3.97-.77-6.52-.42-2.55.35-5.11.3-6.93,4.09-1.82,3.78-6.63,6.69-2.83,8.04,3.8,1.35,7.11.28,5.67,3.71-1.44,3.42-4.45,7.09-6.16,8.71-1.71,1.62-4.97,3.88-4.26,6.91.71,3.04-1.55,5.59.09,7.33,1.65,1.74,1.12,3.47,4.91,4.43,3.78.96,1.42,1.13,7.6,2.7,6.17,1.58,7.34,6.24,11.4,4.05,4.05-2.19,6.44-1.56,2.93-5.66-3.51-4.09-7.22-8.01-6.31-10.1.9-2.09,1.06-3.06,3.15-5.04,2.09-1.98,2.47-2.34,4.77-4.09,2.3-1.76,6.79-2.72,4.7-5.68-2.09-2.97-5.98-1.76-1.57-4.7,4.42-2.94,4.76-4.09,5.86-1.42,1.09,2.68-1.57,5.19.27,6.75,1.84,1.56,3.59,1.13,6.57,1.62,2.98.48,3.74-.24,4.78,1.25,1.04,1.48,3.37.52,1.53,3.91-1.84,3.39.93,8.6,1.93,8.89,1,.29,6.03,2.95,8.17-2.78,2.14-5.73,5.86-11.31,6.81-12.21.95-.9,4.04-2.58,3.21,1.49-.82,4.08-6.59,2.93-2.3,6.71,4.29,3.77,7.99,2.74,9.02,3.83,1.03,1.09-.03,4.15-3.86,6.95-3.83,2.8-7.11,4.66-10.23,5.55-3.12.89-.33-3.39-.38-4.59-.05-1.19-5.56-.92-7.46.87s-1.82,3.78-1.36,5.41c.46,1.63,1.28,2.5,1.52,3.51.24,1.01.51,2.82-2.34,5.51-2.85,2.69-2.22-1.2-4.21,3.16-2,4.36,1.52,3.51,4.92,4.82,3.4,1.31,8.86,4.8,3.05,7.41-5.81,2.61-8.85,5.49-9.36,7.61-.51,2.13-.19,5.13.85,6.61,1.04,1.49,5.45,3.09,2.85,7.2-2.6,4.1-2.87,7.25-6.16,8.71-3.29,1.47-5.22,2.47-7.77,2.82-2.55.35-2.72.93-1.92,6.35.04.24.06.45.09.68l11.32.54c.62-1.1,1.13-1.67,3.01-.44.36.24.75.45,1.15.63l5.02.24c.42-.38.63-.97.49-1.82-.52-3.22-1.46-1.92-.62-5.6.84-3.68.59-5.09,2.91-6.05,2.33-.97,3.18.7,4.65-1.93,1.47-2.63,2.85-2.69.59-5.09-2.26-2.39-2.82-1.46-3.1-3.66-.28-2.2,1.41-4.22,2.56-4.9,1.16-.68,1.6.55,3.13-.49,1.54-1.04,3.07-2.08,2.8-3.89-.27-1.81-2.04-1.78-1.16-4.26.89-2.49.7-2.31.79-4.87.1-2.56.29-2.74.22-4.33-.06-1.59-.3-2.6,1.61-4,1.92-1.4,1.6.55,3.47,2.9,1.87,2.35.57,4.41.03,5.74-.54,1.33.65,1.45.54,3.61-.11,2.17-.78.32-.11,2.17.66,1.84.05,1.19.35,3.79.3,2.6.93,3.65,3.28,3.08,2.34-.57,3.13-.49,4.16.59,1.03,1.09,3.47,2.9,4.99,1.46,1.52-1.44,2.52-1.14,2.98-4.46.46-3.32.65-3.5,1.76-5.37,1.11-1.87,2.26-2.55,2.2-4.14-.06-1.59-.28-2.2-1.52-3.51-1.23-1.3-2.83-1.85-1.55-4.3,1.28-2.45,1.79-4.58,3.96-4.57,2.17,0,1.88,2.75,3.91-.81,2.03-3.57,1.8-4.18,2.33-5.91.52-1.73.11-2.17,2.64-2.91,2.53-.75.76-.72,4.7-.74,3.94-.02,6.89-.33,7.85-.83.96-.5,3.06-2.48,3.37-4.43.32-1.95,1.06-3.06-.93-3.65-1.99-.59-2.34.57-4.35-.42-2.01-.98-4.97-1.07-4.46-3.2.51-2.13,1.52-1.44.86-3.28-.66-1.84-2.74-4.42-4.75-5.4-2.01-.98-3.77-.56-4.46-3.2-.7-2.64-.52-3.22.81-4.47,1.33-1.26,2.12-1.18,2.26-2.55.14-1.37-1.65-1.74-2.34-4.38-.7-2.64-2.31-3.58.81-4.47,3.12-.89,4.02-2.98,4.34.02.32,3-1.19,4.83.65,6.39,1.84,1.56,4.23,2.18,5.86,3.53,1.63,1.34,3.48,3.3,4.1,3.95q.62.65,1.73,3.73c1.11,3.07.51,2.82,2.17,4.95,1.66,2.14.62,5.6,4.95,5.62,4.34.02,4.53-.16,7.07-.51,2.55-.35,3.31-1.07,5.89-.62,2.58.44,5.03,2.66,3.13,4.45-1.9,1.8-.87,2.89-4.04,2.58-3.17-.3-4.92.12-5.86,1.42-.93,1.29-1.84,3.38,1.19,5.06,3.02,1.67,6.89-.33,5.62,2.51-1.27,2.85-.79,4.87-2.6,4.11-1.8-.77-4.02-1.97-5.26-3.27-1.23-1.3-3.7-3.91-6.22-2.77-2.52,1.15-3.48,1.65-5.1,5.65-1.62,4,.44,6.18-3.47,6.99-3.91.81-8.74,3.32-10.84,4.9-2.1,1.58-2.87,2.3-1.62,4q1.25,1.7,2.74,4.42c1.49,2.72,2.31,3.59.41,5.38-1.9,1.8-3.99,3.77-5.75,4.2-1.76.43-3.8-1.35-4.05,2.19-.25,3.54-1.16,5.63,1.99,5.53,3.15-.1,5.87-1.02,5.87-1.02,0,0-.89,1.58-1.91,3.08-1.49-.19-1.88-.45-2.77.15-1.11.75-1.26.6-1.61,2.42,0,0,0,.02,0,.03-1.17-.17-2.64-.36-4.5.41-2.68,1.11-4.47,2.31-6.52,3.61-2.3-.82-4.66-1.47-5.06-.14-.63,2.09-1.28,3.6-2.55,3.9-1.27.31-3.01-4.01-2.48-5.1.53-1.09.18-2.56-3.57-.2-3.75,2.36-6.11,3.99-7.21,5.03-1.1,1.04-.76-1.07-1.48,2.29-.72,3.37.39,2.61-1.12,4.04-1.51,1.43-.69.65-3.5,1.53-1.75.54-1.95-.03-2.74.29l40.55,1.94,1.28,1.74,36.34,1.02c.73-2.28.27-2.17,1.28-4.26,1.05-2.19,1.36-1.59,2.27-3.93ZM978.69,457.8c-1.07,0-2.49.97-3.56-.64-.2-.3-.33-.63-.43-.96-4.57.65-9.25-1.13-13.1-6.2-6.42-8.22-7.62-20.32-6.05-30.4.36-2.39.87-4.8,1.56-7.14-.39-.05-.9-.08-1.55-.08-3.2,0-3.56.97-8.54,1.93-4.52.88-8.45,3.33-11,1.86l.03.56.25,4.48c.26.05.51.11.75.19,2.85.97,3.56-1.61,4.27,2.58.71,4.19,1.07,6.44-1.42,8.38-.89.69-1.83,1.3-2.75,1.71l.22,2.29,1.08,4.31,1.53,5.07.88,2.95,1.42,2.29,2.9,4.83,2.19,3.03,2.31,2.58c.95.1,1.72.12,2.69-.05,1.78-.32,1.78,0,2.49,1.29.71,1.29-.36.97,1.42,2.58.56.5.9.85,1.2,1.09l1.92.52c.32,0,.69,0,1.15,0,2.85,0,3.2-2.25,4.27-3.22,1.07-.97,2.14-2.25,4.27-1.29,2.14.97,1.07.97,2.85,3.22.31.39.55.71.76.97h.05s3.53-1.21,3.53-1.21l3.48-1.73,2.82-1.85,3.36-2.93,5.57-6.78c-6.75,2.96-7.16,3.88-8.88,4.19-1.78.32-2.85,1.61-3.92,1.61ZM528.02,395.41s.01-.05.02-.07l-16.1-.77,16.08.84ZM445.57,577.88c-1.91-2.54-2.12-3.39-4.66-2.76-1.79.45-2.53.79-3.63,1.02l10.69,5.68,1.11-3.41c-1.52.63-1.94,1.55-3.51-.54ZM735.7,589.19l-2.12-6.26-.83-5.31-1.18-5.9-.71-7.08-1.77-10.86-.02-1.91c-.97.05-1.97,0-2.38.01-1,.05-2.28.07-4.03-.96-1.75-1.02-1.9-1.18-3.25-2.88-1.35-1.7-1.08-1.96-1.97-2.91-.89-.94-2.69.46-6.02,2.72-.14.1-.26.16-.39.23.47.57,1,1.18,1.63,1.85,0,0,1.45,4.53-.72,5.92-2.17,1.39-3.25,1.74-3.61,3.83-.36,2.09.72,2.44,2.89,4.18,2.17,1.74.72,4.53-1.44,6.97-2.17,2.44-4.7,2.09-9.39,1.39-4.69-.7-1.81-1.39-2.89-4.18-1.08-2.79.72-6.97-3.61-10.1-4.33-3.14-5.78,5.92-2.89,8.36,2.89,2.44-.36,6.62-1.44,11.5s-2.17,5.23-2.17,8.36.72,2.79,1.81,3.14c1.08.35,1.81,2.79,2.53,3.83.72,1.05,1.44,3.14.72,7.66-.72,4.53-3.61.7-3.61.7,0,0-2.53,2.44-1.81,5.57.72,3.14,1.44,4.18,4.33,6.97,2.89,2.79,3.25,2.44,3.25,2.44,0,0-.72,3.48-3.25,5.92-.98.95-1.42,1.42-1.69,1.83l10.22.67,5.14-1.06,5.76-1.15,3.54-1.86,5.84-2.04,5.39-1.6c.64-.54,1.28-.8,1.93-1.42,1.08-1.05,1.44-4.53.72-8.36-.72-3.83,0,0-1.08-1.39-1.08-1.39-1.44-1.39-1.81-4.18-.36-2.79,0-2.79,0-2.79,0,0,2.17-3.48,5.06-3.48s2.89,1.04,2.53,3.14c-.36,2.09-1.08,3.48-.36,4.88.72,1.39,3.25.7,5.06,1.74.25.14.44.3.59.45l.4-6.9-2.86-9.68ZM515.18,710.87l.49-1.83c-.92-.46-1.97-1.21-3.57-2.14-3.52-2.05-1.76-1.76-3.81-4.4-2.05-2.64-5.28.59-6.15,3.81-.88,3.22-2.34,1.46-5.28,1.17-2.93-.29-2.05-.88-1.46-2.64.59-1.76.41-.54-1.64-4.64-2.05-4.1-2.92-1.7-4.97.36-2.05,2.05,1.63,2.82-1.59,3.7-3.22.88-1.76,1.76-4.1,3.81-2.34,2.05-1.76,2.93.59,3.52,2.34.59,3.81.59,7.33,4.98,3.52,4.4,4.1,4.69,6.45,3.22,2.34-1.46,4.69-2.05,8.5-3.22,2.56-.79,4.59-.12,7.25.76l.21-.88,1.77-5.58ZM426.64,859.91c-4.69,2.05-6.45-.29-8.5-.88-2.05-.59,1.17-1.47,2.05-2.93.88-1.47-1.47-4.4-3.52-3.81-2.05.59-3.52,1.47-8.21-2.05-4.69-3.52,1.47-3.52,3.81-6.16,2.34-2.64,4.1-1.47,7.03-1.47s3.22.59,6.74.59,3.52-1.46,3.52-4.69-.59-2.93-2.93-3.22c-2.34-.29-2.05,0-7.33-2.05-5.28-2.05-.59-3.81-1.76-6.16-1.17-2.34-4.69.88-4.69.88l-5.28,3.81c-5.28,3.81-4.1,2.93-3.52,5.57.59,2.64-.59,2.64-3.81,4.98s-2.34,1.17-5.28.29c-2.93-.88,0,0-.59-4.4-.59-4.4-2.64-.88-4.69-2.35-2.05-1.47-2.64-2.64-6.15-3.52-3.52-.88-1.47.88-5.57,2.64-4.1,1.76-4.1.29-6.15-.59-2.05-.88-1.17-1.17-1.76-3.22-.59-2.05,1.76-6.15,3.22-7.91,1.46-1.76,4.69-4.98,3.22-8.21-1.46-3.22-2.64,0-4.98-.29-2.34-.29-4.1-1.47-6.45-3.22-2.34-1.76-1.76,0-4.98.59-3.22.59-5.86,1.76-9.38,5.27-3.52,3.52-5.28,1.47-4.1-1.47,1.17-2.93-1.47-1.76-3.22-2.64-1.76-.88.29-4.1,3.22-4.98,2.93-.88,5.28-2.05,5.57-3.22.27-1.08.28-3.27,1.37-4.32,1.08-1.04,1.44,0,5.06-.35,3.61-.35,5.78,0,9.39.35,3.61.35,1.44.7,3.25.7s3.97-.7,7.22-1.04c3.25-.35,2.89-.35,6.86-4.53,3.97-4.18-1.81-1.39-3.25-2.79-1.44-1.39-.72-1.39-.36-4.18.36-2.79,1.08-2.44,2.89-4.53,1.8-2.09,1.81-3.14,1.81-5.58s-1.81-3.83-3.61-2.79c-1.81,1.05-1.08,2.44-2.89,4.18-1.81,1.74-7.95,0-9.03-2.44-1.08-2.44-.72-3.83-.72-7.32s0-5.23,1.81-7.32c1.81-2.09,3.25-2.09,4.69-5.57,1.44-3.48-.72-3.14-.36-5.92.36-2.79,1.44-4.18,5.42-6.97,3.97-2.79,0-2.44-.36-5.23-.36-2.79.72-2.09,1.81-4.18,1.08-2.09,2.17-2.09,3.25-3.14,1.08-1.05,1.44-4.53.72-8.36-.72-3.83,0,0-1.08-1.39-1.08-1.39-1.44-1.39-1.81-4.18-.36-2.79,0-2.79,0-2.79,0,0,2.17-3.48,5.06-3.48s2.89,1.04,2.53,3.14c-.36,2.09-1.08,3.48-.36,4.88.72,1.39,3.25.7,5.06,1.74,1.81,1.04.72,2.44.72,3.48s-1.44,2.09-1.81,3.83c-.36,1.74-1.44,2.09-5.06,9.41-3.61,7.32,0,2.09-.36,4.88-.36,2.79,1.08,2.44,2.17,3.48,1.08,1.05,2.53-.7,2.53-2.09s0-4.53,1.44-5.58c1.44-1.04,3.25,0,5.06,1.05,1.81,1.04,0,1.74-1.08,3.83q-1.08,2.09-1.44,3.14c-.36,1.04-.72,2.09-1.08,3.14-.36,1.05-1.08,2.09-1.8,4.88-.72,2.79.72,1.74,2.17,3.83,1.44,2.09.72,2.44.72,3.48s-.72,1.74-2.89,3.14c-2.17,1.39-2.53,1.74-3.25,4.18-.72,2.44,1.08,1.39,2.89,1.05,1.8-.35,5.06,2.09,5.42,3.14.36,1.05,0,1.39-1.44,3.83-1.44,2.44-1.81,0-5.06.7-3.25.7-.72,2.79-.72,2.79,0,0,3.25,0,6.14,1.39,2.89,1.39,1.08,2.09.36,3.14-.72,1.05-1.44,1.74-1.08,4.88.36,3.14,1.44.7,4.33-.7,2.89-1.39,1.08-2.44,2.17-4.53,1.08-2.09,2.89-3.14,4.69-5.23,1.81-2.09,1.08-2.79.72-5.23-.36-2.44,0-3.83.36-6.97.36-3.14,1.81-3.83,2.89-5.92q1.08-2.09,2.17-5.57c1.08-3.48-.36-3.14-.72-5.23-.36-2.09-2.17-1.05-3.25-3.14-1.08-2.09-1.08-3.83-1.08-5.57s-1.08-2.79-2.53-5.58c-1.45-2.79-1.45-3.48-.72-5.23.72-1.74,2.17-2.09,4.33-6.62,2.17-4.53-.72-1.74-2.53-3.48-1.81-1.74-1.45-1.39-3.97-3.14-2.53-1.74-2.53-.7-3.61-2.79-1.08-2.09.36-3.14,1.44-4.18,1.08-1.05,3.61-1.39,3.61-4.18s0-2.44-1.8-4.18c-1.81-1.74-1.45-.7-2.89-1.39-1.44-.7-1.81-.7-1.44-2.44.36-1.74,0-2.79-.36-5.57-.36-2.79-1.44-1.39-2.89-2.09-1.45-.7-2.17-1.05-4.33-2.44-2.17-1.39-1.08-3.14-1.08-6.27s1.8-4.53,3.97-4.88c2.17-.35,4.33-.35,7.22-1.39,2.89-1.05,5.06-2.09,10.11-6.27,5.06-4.18.72-2.79-.72-5.58-1.44-2.79-1.81-1.04-3.61-2.09-1.81-1.04-.36-2.09,0-5.58.36-3.48,2.53-1.74,2.53-5.23s-.72-3.48-3.25-4.18c-2.53-.7-4.7.35-8.31,0-3.61-.35-2.17,0-6.5.35-4.33.35-3.97,1.05-4.7,3.48-.72,2.44-2.53,1.39-5.78,3.48-3.25,2.09-2.89-2.09-2.89-2.09,0,0-.36-1.74-6.5-2.09-6.14-.35-3.25,1.74-3.61,3.14-.36,1.39-.72,2.09-1.08,3.13-.36,1.05-2.17,1.39-2.17,2.44s1.08,3.14,4.33,6.62c0,0,1.45,4.53-.72,5.92-2.17,1.39-3.25,1.74-3.61,3.83-.36,2.09.72,2.44,2.89,4.18,2.17,1.74.72,4.53-1.44,6.97-2.17,2.44-4.7,2.09-9.39,1.39-4.69-.7-1.81-1.39-2.89-4.18-1.08-2.79.72-6.97-3.61-10.1-4.33-3.14-5.78,5.92-2.89,8.36,2.89,2.44-.36,6.62-1.44,11.5-1.08,4.88-2.17,5.23-2.17,8.36s.72,2.79,1.81,3.14c1.08.35,1.81,2.79,2.53,3.83.72,1.05,1.44,3.14.72,7.66-.72,4.53-3.61.7-3.61.7,0,0-2.53,2.44-1.81,5.57.72,3.14,1.44,4.18,4.33,6.97,2.89,2.79,3.25,2.44,3.25,2.44,0,0-.72,3.48-3.25,5.92-2.53,2.44-1.44,1.74-3.25,4.88-1.81,3.14-3.61,2.09-5.78,4.18-2.17,2.09,0,2.44,1.44,7.67,1.44,5.23,2.17.35,4.7,1.04,2.53.7,3.25,1.39,5.78,2.44,2.53,1.05,0,1.74-.72,4.18-.72,2.44-1.44,1.04-1.44,2.44s-2.89,2.09-4.7,3.83c-1.81,1.74-2.53.7-6.86,0q-4.33-.7-7.22-.7c-2.89,0-1.81,1.39-5.42,2.09-3.61.7-1.81,1.05-3.25,2.44-.97.94.51,1.56,2.24,2.83,0,0,0,0-.01,0-1.76.29-3.81,2.34-3.81,3.52s-1.17,1.47-3.81,2.93c-2.64,1.47-3.52.88-6.74.59-3.22-.29-2.93-.59-7.62-.88-4.69-.29-4.1.29-5.28,1.17-1.17.88-1.76,1.17-8.5,2.93-6.74,1.76-5.57-1.47-5.86-2.64-.29-1.17.88-2.34,0-3.81-.88-1.47-2.34-.29-5.86-.88-2.36-.39-3.27-.12-4.95.54l-.69,5.76-.04,6.99-.09,18.06.02,4.82c1.94-1.29,1.94-4.16,1.94-5.69,0-1.76.88-4.1,1.76-5.86.88-1.76,2.05,0,5.28,1.17,3.22,1.17-1.47,2.35-2.64,5.57-1.17,3.23,1.17,4.1,2.93,4.4,1.76.29,3.52-.59,5.86-2.93,2.34-2.34,2.34-.88,5.28-.88s2.64,3.22.88,5.28c-1.76,2.05-2.93,2.05-5.28,3.52-2.34,1.47-2.64,1.47-6.15,4.4-3.52,2.93,0,4.69.29,7.33.29,2.64.59,2.05,2.05,4.98q1.47,2.93,1.47,3.81c0,.88,0,3.52-.29,5.57-.27,1.89-1.52,3.78-1.95,5.9l3.97,4.41,1.82,1.77,1.24,2.7.93,1.28-.04,1.28,2.88,1.73,5.98.93,9.71,1.65,5.84.94,5.6.94c.47-.43.97-.86,1.55-1.27,2.93-2.05,8.21-3.22,11.43-5.28,3.22-2.05,5.28-4.69,8.79-3.81,3.52.88-.59,4.1-5.28,8.79-4.69,4.69,1.17,2.93,9.09.59,7.91-2.34,9.09,2.34,7.03,3.81-.71.51-1.71,1.2-2.66,1.94l4.58.78,10.92,1.36,1.9.32c.07-.09.14-.19.21-.29,1.17-1.76,4.1-1.47,4.98-1.47s7.03.29,9.09,1.47c1.34.76,1.81,1.16,3.43,2.88l4.3.16h10.39l.99-.12c.64-1.32.92-2.87,1.99-4.1,2.05-2.34,6.15-.59,9.96.29,1.9.44,3.07,1.38,4.05,2.33l3.13-.18,7.45-.51c1.07-3.11,3.32-10.09,3.54-14.53.29-5.86-1.47-4.69-6.16-2.64ZM711.57,537.73c-.36,1.39-.72,2.09-1.08,3.13-.36,1.05-2.17,1.39-2.17,2.44,0,.57.35,1.48,1.18,2.74.28-1.17.88-2.53,1.56-3.52,1.75-2.55,2.46-2.63,4.12-3.9,1.66-1.27,2.23-1.22,4.33-2.3.44-.23.76-.44.99-.66-.91-.44-2.5-.9-5.32-1.06-6.14-.35-3.25,1.74-3.61,3.14ZM425.44,572.37c-4.45.64.42,3.39,3.82,4.03,3.39.64,4.03.21,6.36,0,.69-.06,1.21-.15,1.67-.25l-8.13-4.32c-1.02.17-2.27.33-3.72.54ZM563.15,397.25c-.02-.08-.05-.15-.07-.23l-35.04-1.68s-.01.05-.02.07l35.13,1.84ZM525.09,404c-2.68,6.14,2.58,8.22,3.46,8.81.87.59,6.45-1.13,7.65-5.23,1.2-4.1,2.06-1.45,3.82-1.73,1.76-.28,1.75.89,4.08,2.96,2.33,2.07,3.2,3.83,5.54,4.14,2.34.31,2.37-3.8,5.01-4.95,2.64-1.15,2.05.01,2.89,5.88.84,5.87-.89,1.75-4.41,2.32-3.52.56-1.21,4.97-.93,8.2.27,3.23.27,3.81.25,7.04-.02,3.22-.61,4.1-1.51,6.44-.9,2.34-6.17,2.3-11.45,2.56-3.21.16-3.71.77-3.35,2.35,2.01,1.14,3.45,4.02,3.53,7.44,1.95.88,4.86.68,8.24,3.16,5.25,3.84,3.8,1.78,7.01,4.15,3.21,2.37,4.1.61,6.44.63,2.34.02,2.66-3.79,5.31-5.53,2.65-1.74,2.09-6.14,2.11-8.78.02-2.64.64-7.91,2.13-11.71.17-.44.34-.77.52-1.03.21-.69.43-1.39.62-2.07.7-2.34,1.46-4.9,2.16-7.2.92-2.83,1.4-4.55,3.23-5.02l.08-.02c.71-.09,1.47.01,2.22.22-.08-.12-.15-.24-.23-.37-1.45-2.35-2.61-4.12-4.66-5.01-2.05-.89-2.33-1.77-5.25-4.14-2.91-2.36-.57-2.64-3.77-6.18-1.63-1.8-2.35-2.92-2.7-4.08l-35.13-1.84c-.71,2.65-1.69,5.74-2.93,8.58ZM341.36,385.8l6.77.32h0l-6.77-.32ZM336.09,542.29c2.12-.2,2.12-.62,3.39-.61,1.27,0,1.47,2.55,2.07,7.01.61,4.45,3.39-.4,4.05-3.79.66-3.39.24-4.03.04-6.36-.2-2.33-.62-2.76-1.24-5.31-.62-2.55.23-2.75,2.79-4.65,2.56-1.89.65-2.12.24-4.66-.41-2.55-.63-1.06-1.25-4.04-.62-2.97,1.51-3.81,2.57-3.59,1.06.22.63,1.06,2.31,2.98,1.68,1.92.41,1.7,1.46,4.25,1.04,2.55.83,2.76,1.24,4.25.41,1.49,1.89,2.56,4.03-.4,2.14-2.95,1.06-.21,1.91.01.85.22.41,1.91.83,2.55.42.64.83,2.12,2.3,4.25,1.47,2.13,1.7-.41,2.78-3.37,1.08-2.96,1.49-.84,2.75,1.08,1.26,1.92,1.68,2.77,1.68,2.77,0,0,2.12-.62,3.82-.4,1.69.22,1.69.65,1.89,2.34.2,1.7-.01,1.91-1.07,2.11-1.06.21-1.27.2-2.76,1.04-1.49.84-1.08,2.96-1.71,2.96-.64,0-1.07,1.05-2.13.83-1.06-.22-2.12-.23-2.12-.23,0,0-1.7.41-1.91,1.05-.22.63-1.07,1.05-1.29,2.32-.22,1.27,2.31,3.19,3.16,2.78.85-.42,3.18.44,3.17,1.08,0,.64-.66,4.02-1.3,4.87-.64.84-.65,2.33-.65,2.33,0,0,.62,2.97,2.73,3.83,2.11.86,3.62-2.94,4.25-1.67.63,1.28.2,1.48-.02,2.75-.22,1.27.18,4.24.8,7,.62,2.76,2.11,1.5,3.38,1.93,1.27.43,2.11.86,4.02,1.72,1.9.86,1.05.85,1.46,3.82.4,2.97,3.17,1.72,4.23,1.3,1.06-.42.64-1.27,1.29-2.32.64-1.06,1.28-1.26,2.99-3.37,1.71-2.11.66-3.81-.39-4.67-1.05-.85-1.7-.01-3.38-1.08-1.69-1.07-1.25-3.19-1.23-5.94.02-2.76.86-1.69,2.35-2.95,1.49-1.26-.41-2.12-.82-4.24-.41-2.12-.4-3.18-1.46-3.82-1.06-.64-1.7.41-2.97,1.04-1.28.63-1.71,1.9-3.19,1.46-1.48-.43.02-2.54.03-4.87.02-2.33.44-2.12,2.14-3.59,1.7-1.47,1.7-.2,3.82-1.25,2.13-1.05.64-1.27,1.51-4.02.87-2.75,0-.85-.61-3.61-.62-2.76-.41-1.91-.4-3.39,0-1.48,1.28-.84,3.62-2.1,2.34-1.26.43-1.48.43-1.48,0,0-1.05-1.7-2.1-2.98-1.05-1.28-1.05-1.7-2.1-3.62-1.05-1.91-1.69-1.28-3.6-1.08-1.91.2-3.18.83-5.09,1.03-1.91.2-2.54-.86-3.8-2.36-1.26-1.49.23-3.18,2.78-4.01,2.55-.83,1.71-2.11.65-2.54-1.06-.43-3.81-.45-4.24.18-.43.63-2.11-1.07-.19-4.03,1.93-2.95,9.34-2.91,10.61-2.69,1.27.22,3.58,3.41,6.11,5.13,2.53,1.71,1.92-1.9,2.15-4.65.23-2.75,1.29-2.75,2.77-2.53,1.48.22,1.9,1.07,2.14-3.59.24-4.66,1.29-3.38.9-8.05-.39-4.67-.62-2.55-1.67-4.46-1.05-1.91-.4-3.39.04-6.15.44-2.75.85-1.05,1.7-.84.85.22,2.95,2.14,4.86,2.15,1.91.01.86-1.48,1.92-2.11,1.06-.63.85-.21,2.33.44,1.48.65,2.32,1.5,4.01,2.57,1.69,1.07.63,1.06,1.03,4.03.41,2.97,1.04,3.61,2.3,5.31,1.26,1.7,1.26,1.07,3.37,3.41,2.1,2.34,1.9,1.71,4.01,2.99,2.11,1.28,1.27-.2,3.62-1.88,2.34-1.68,1.28-1.05,1.71-2.32.43-1.27,1.07-.84,2.97-.19,1.9.65,1.05,1.49,2.53,2.77,1.48,1.28,0,0,1.26,1.7,1.26,1.7,1.05,1.91.83,2.55-.22.63-.64,1.05-2.35,2.32-1.7,1.26,0,0-1.06.84-1.07.84-.64,1.27.38,7.42,1.02,6.15-.02,3.39-.03,4.03,0,.64-1.08,2.75-.45,4.87.62,2.12.84,1.49,2.09,3.83,1.26,2.34-1.49,1.26-2.34.83-.85-.43-1.05-.85-2.96-1.5-1.9-.65-1.69-.22-2.76.62-1.07.84-.86,2.11-.24,4.66.62,2.55,1.9.86,3.59,1.51.38.14.63.22.82.26l.45-3.48,3.01,2.42,3.54,1.89,4.33,2.21c.1-.43.12-.78.97-1.73,1.49-1.69.85-.42,2.55-.41,1.69.01,1.27.43,1.89,1.71.63,1.28,0,0,1.06-.21,1.06-.2,1.71-1.9,1.72-3.59.01-1.7-.84-1.28-1.25-2.97-.41-1.7.44-1.69.67-4.45.23-2.75.02-2.33-.18-4.45-.2-2.12.23-3.39.68-6.14.44-2.75.43-1.06,3.19-2.31,2.76-1.25.22-1.91.66-4.45.44-2.54.02-3.39-.19-4.03-.21-.64-1.9-.65-2.54-.23-.64.42-2.12.62-3.39-.02-1.27-.64-1.26-1.49-3.37-3.62-2.11-2.13-1.69-.44-3.18-.45-1.48,0-1.27-.64-3.17-2.14-1.9-1.5-1.25-2.55-1.03-4.25.22-1.69.86-2.33,1.72-3.59.86-1.27,1.49-.63,2.12-.83.64-.21.64-.84,1.08-2.32.43-1.48.01-2.12-.4-4.45-.41-2.33-.83-2.34-1.25-3.82-.41-1.49.01-2.12.66-3.18.64-1.05.22-1.06,1.29-2.53,1.07-1.48,1.07-1.05,2.13-1.68,1.06-.63,2.42-2.23,4.76-2.21,2.35.02,1.81,1.83,2.65,3.53.84,1.7,0,0,1.91.01s1.91.22,2.95,3.41c1.04,3.18-.65,2.33-3.21,5.07-2.56,2.74.18,4.03,1.23,5.73,1.05,1.7,1.9,1.28,4.23,1.51,2.33.23.42,1.06.4,4.24-.02,3.18.84,1.06,2.32,1.07,1.48,0,1.28-1.26,1.3-4.44.02-3.18,0-1.27.45-3.6.44-2.33,1.07-1.48,2.14-2.95,1.07-1.48,2.34-.83,2.98-2.1.64-1.27.87-3.17.91-8.9.04-5.72-.61-3.18-1.87-6.16-1.25-2.98-1.26-1.7-1.25-4.04.02-2.33.22-.85,2.15-4.01,1.93-3.17.64-1.27.65-2.96.01-1.7-.39-4.88-1.21-9.76-.82-4.88-2.09-4.04-2.53-2.77-.43,1.27-4.68,3.15-5.31,1.87-.63-1.28.02-2.97,1.09-5.08.68-1.34-1.36-2.78-3.48-4.03-.44-2.67-.78-5.06-1.77-8.1-.69-2.11-1.8-3.17-2.71-4,0,0,.01-.02.02-.03,1.07-1.69.86-1.69.66-3.17-.16-1.18-.61-1.31-1.74-2.38.39-1.99.93-3.92.93-3.92,0,0,1.15,2.94,3.19,5.59,2.04,2.65,2.93.31,5.29-2.6,2.36-2.92-.27-3.23-1.14-4.99-.87-1.76-.85-4.99-.83-7.92,0-.77.1-1.32.27-1.75-1.63-1.05-4.71-1-6.39-.66-2.25,6.28-2.77,14.68-2.66,21.43-4.31,5.4-11.13,6.95-17.71,6.2-12.78-2.84-19.41.68-20.32-9.89-.68,0-1.83.1-2.99,1.25-1.28,1.26-1.92,1.9-3,4.64-1.08,2.75.2,2.12,2.31,3.83,2.11,1.71.41,2.76.39,5.51-.02,2.76-2.76.19-4.02-1.3-1.26-1.49-.62-2.55-1.04-3.61-.42-1.06-1.89-1.92-2.53-1.5-.64.42-2.13,1.68-3.81-.02-1.68-1.71-1.04-2.97-1.03-4.88.01-1.91-.41-1.91-.82-4.24-.41-2.33-2.74-2.14-4.43-3-1.69-.86-3.4,1.04-2.77,2.31.63,1.28,2.32,1.71,2.31,2.98,0,1.27-.87,2.96-1.52,4.86-.65,1.9-.66,3.17-1.09,4.23-.43,1.06-1.51,3.38-2.35,3.16-.85-.22-3.15-3.83-4.85-4.27-1.69-.43-4.66-.24-5.72-.25-1.06,0-1.71,2.11-2.56,2.74-.85.63-2.55,1.04-4.45.4-1.9-.65-.61-3.61-.6-5.3.01-1.7-.41-2.33-1.04-3.4-.63-1.06-2.31-2.56-3.57-4.9-1.26-2.34.23-2.75,1.52-6.14,1.29-3.38.22-1.91.02-2.97-.2-1.06-.62-1.7-1.04-2.34-.42-.64-.41-2.12-1.04-2.55-.63-.43-1.49.63-2.54-.02-1.06-.64-1.47-1.28-2.75-1.08-1.27.2-1.06.2-1.5,1.9-.43,1.69-1.91.83-2.76.19-.84-.64-1.25-2.76-.61-4.67.65-1.9,1.92-2.74,1.73-5.08-.2-2.33-.4-2.97-1.88-4.67-1.47-1.71-1.48-.22-2.97-.23-.84,0-1.26-.82-1.25-1.75l-6.77-.32-14.06-.67c-.03.45.05,1.11.04,2.18-.02,2.33.83,2.12,2.53,2.77,1.69.65.42,1.49-.24,3.81-.65,2.33-.01,1.7-.89,6.56-.88,4.87-.65,1.48-1.32,6.77-.67,5.29.19,2.76,1.44,6.79,1.25,4.04,1.24,4.25,1.43,7.85.19,3.6-.66,3.39-.88,5.72-.23,2.33-1.29,3.59-2.79,5.28-1.49,1.69-2.14,3.59-2.8,6.34-.3,1.28-.42,2.01-.53,2.6l6.86,11.25,5.78,15.23,2.66,11.98-.24,17.65-.71,10.27-1.24,14.4-2.07,15.82-.68,3.94c.63.1,1.22.05,2.41-.06ZM507.13,397.89l-.55.43.94-.74-.39.31ZM509.23,396.67l.34-.37-.54.52-.96.59.29-.09.89-.65ZM506.57,398.32l-20.22.21,19.12-.03,1.09-.18ZM484.15,397.59c-.19,1.16-.76,2.49-1.25,4.08-.9,2.93-2.36,2.04-4.12,2.03-1.76-.01-2.35.28-3.53,1.44-1.18,1.17-.9,2.63-1.5,4.97s-.6,2.63-2.67,5.55c-2.07,2.92-1.19,3.51-1.21,5.85-.02,2.34,2.91,2.95,4.38,2.96,1.47,0,2.05.6,3.21,2.95,1.16,2.35,2.33,2.07,4.39.32,2.06-1.75,1.18-1.75,2.95-2.62,1.76-.87,0,0,1.48-1.75,1.48-1.75,2.35-.86,2.95-2.33.6-1.46,1.2-4.1,4.13-4.37,2.93-.27,4.12-2.03,4.39.61.28,2.64-.61,3.22-1.79,4.38-1.18,1.17-1.18,1.46-2.95,3.5-1.77,2.04-1.77,1.75-2.96,4.38-1.19,2.63-2.35,1.16-3.82,2.32-1.47,1.16-1.19,3.22-.91,5.27.28,2.05,1.46,1.48,1.74,2.94.28,1.47-.03,4.4-1.8,5.85-1.77,1.45-1.47.28-4.69.26-3.22-.02-2.35,1.16-3.25,4.38-.9,3.22.86,2.64,1.72,5.29.86,2.64-.32,3.52-2.39,7.02-2.07,3.5-1.77,1.75-4.42,3.78-2.65,2.03.55,5.28,3.77,6.18,3.22.9,1.45,2.35,1.14,5.28-.31,2.93-.89,2.05-2.65,1.45-1.75-.6-.54-.42-4.65,1.61-4.12,2.02-1.72,2.91.32,4.98,2.04,2.07,2.83-1.61,3.69,1.62.86,3.23,1.75,1.77,3.78,4.13,2.04,2.36,2.92,1.78,3.52-.56.6-2.34.61-3.81,5.03-7.29,4.42-3.49,4.72-4.07,3.27-6.43-1.45-2.35-2.02-4.7-3.17-8.52-1.15-3.82.92-6.44,2.13-11.71,1.21-5.27,5.29-2.9,7.05-3.18,1.76-.28,4.12-2.32,5.3-4.36,1.18-2.04,1.22-6.73-.79-13.49-2.01-6.75,4.14-4.96,7.35-3.18,3.21,1.78,4.95,5.31,6.74.34,1.79-4.97-.58-1.47-.55-5.87.03-4.4,1.5-5.56,2.38-6.14.88-.58,2.06-.57,3.53-1.44,1.47-.87,2.95-2.33,2.97-5.26.02-2.93-3.47-7.64-4.35-6.77-.89.87-2.09,6.43-3.54,3.2-1.44-3.23-2.3-7.34-2.85-12.62-.15-1.45-.15-2.74-.03-3.86l-1.5.92-.55.6h0s-.34.37-.34.37l-.89.65-.29.09h0l-.54.17-.94.74-1.09.18-19.12.03-1.86-.79-.35-.15ZM664.06,401.91s.02-.04.03-.06l-11.32-.54s0,.09.02.14l11.27.46ZM651.43,408.83c-1.11,1.87-.87,2.88,2.09,2.97,2.96.09,2.63,1.64,5.33.31,2.71-1.32.86,1.5,3.63,1.77,2.77.27,5.03,1.52,3.47-2.79-1.55-4.3-.58-3.5-2.2-4.45-1.61-.95-2.6-.84-.9-2.86.55-.65.89-1.32,1.2-1.87l-11.27-.46c.59,4.69-.31,5.6-1.36,7.38ZM802.04,479.1c2.48-2.05,2.62-2.18,6.12-3.71,3.5-1.53,2.45.66,5.44-3.06,2.99-3.72.94-1.48,3.5-5.1,2.56-3.62,2.6-2.76,3.66-4.66,1.06-1.9.72-3.36,2.32-2.49,1.6.87,2.06,1.63,3.57.2s2.08-1.38,1.46-2.58c-.62-1.2-.19-1.31-1.36-1.99-1.17-.68-1.82-2.75.32-2.69,2.14.06,1.71-.12,3.28.17,1.58.29,1.46,1,3.38-1.11,1.91-2.11,1.92-1.82,3.15-3.28,1.22-1.46,5.74-2.46,5.56-3.47-.18-1.02.05-2.43-1.4-2.85-1.44-.42-1.68.7-3.7.22-2.01-.48-3.58-.49-2.93-2,.65-1.51,2.07-1.66.32-2.69-1.75-1.03-1.89-.9-2.75-.98-.86-.08-2.5,1.77-3.48,2.1-.99.34-2.56.04-2.76-1.26-.2-1.3,1.33-2.45-.26-3.03-1.59-.58-2.03-.77-2.87-.56-.85.2-2.52,1.19-4.35,1.73-1.83.54-3.67.79-4.03,2.62-.36,1.82-.64,1.8-.57,3.52.07,1.72-1.73,3.13-2.77,2.03-1.04-1.1-.08-2.01-2.22-2.07-2.14-.06-2.7.17-4.36,1.44-1.66,1.27-1.32,2.74-2.11,4.38-.79,1.64-2.46,2.63-3.47,2.39-1.01-.24-2.6-.82-1.8-2.17.8-1.36.95-1.2.19-2.27-.76-1.07-1.46-1-2.62-1.39-1.16-.4-1.06-1.68-1.79-1.89-.72-.21-1.68.7-2.39.77-.71.08-1.42.15-2.25.64-.84.49-.62-1.2-1.92,1.82-1.31,3.02-.54,4.38-2.94,4.87-2.4.48-4.56.14-5.69.31-1.13.18-1.84.25-2.94,1.29-1.1,1.04-2.13,3.8-3.88,2.78-1.75-1.03-2.67-2.54-2.85-3.56-.18-1.02.74-2.79,0-3.58s-2.69-3.12-4.15-4.12c-1.47-1-5.44-.52-6.17-1.02-.73-.5.04-2.71.42-3.68.39-.96,1.21-1.74,2.01-3.39.79-1.64,1.29-3.31,2.12-4.09.82-.78,2.29.22,3.56-.09,1.27-.31,1.32-2.74-.42-3.47-1.74-.74-3.24-2.6-5.05-1.48-1.81,1.12-2.11.8-3.34,1.97-1.24,1.17-1.61,2.42-3.9,2.2-2.29-.22-2.51-2.1-2.68-2.83-.17-.73-1.76-1.31-2.75-.98-.98.33-1.23,1.46-3.08,1.42-1.85-.03-5.44-.52-3.65-2.21,1.79-1.69,1.28-3.6,3.87-3.06,2.59.53,3.07,1.87,4.11-.61,1.04-2.48,1.01-3.34.94-5.06-.07-1.72-.96-2.67-1.41-3.14s-1.45-.71.79-1.64c2.24-.93,2.4-.49,3.65-1.37,1.25-.88,1.24-1.17,2.13-3.8.04-.12.07-.22.11-.33l-36.34-1.02-1.28-1.74-40.55-1.94c-.48.2-1.18.73-2.58,2.06-3.71,3.51-4.8,4.84-5.17,6.09-.38,1.25.93,1.8.71,3.5-.22,1.7.78,1.65-.43,3.39-1.21,1.74.02.57-2.04,2.52-2.06,1.95-3.03,2.57-1.99,3.67,1.04,1.1.26,3.03,2.32,1.08,2.06-1.95,1.27-3.88,3.05-2.28,1.77,1.6,2.09,2.49,3.94,2.24,1.84-.25,4.6,1.01,4.6-2.57,0-3.58-1.74-4.31,1.06-5.48,2.81-1.16,2.94-1.29,4.28.12s-.36,1.83,1.34,1.42c1.69-.41,2.51-1.91,4.15-.17,1.65,1.74,1.55,3.72,1.88,4.9.33,1.18.61.92.39,2.61-.22,1.7-.52,1.38-.76,2.5-.24,1.12-.35,1.82-1.61,2.42-1.26.59-1.56.28-3.36,1.39-1.81,1.11-2.52,1.19-3.18,2.41-.66,1.23-1.08,1.61-.77,2.22.31.6,1.17.68.94,2.09-.23,1.41-.2,2.27-1.15,3.47-.95,1.2-1.19,2.32-3.49,1.81-2.3-.51-2.56.04-3.61-1.06-1.04-1.1.35-1.82-2.51-2.1-2.86-.27-3.41.25-4.71-.31-1.3-.55-2.21-1.79-2.38-2.52-.17-.73-1.36-1.99-1.92-1.76-.56.23-1.41.44-2.76,2.31-1.35,1.88-3.55.38-2.44,3.2,1.11,2.82,2.21,1.79.72,3.79-1.49,2-2.01,3.1-3.54,4.24-1.52,1.14-1.4.72-3.03,2.57-1.64,1.85-1.04,2.48-2.44,3.2-1.4.72-1.72-.16-2.82.87-1.1,1.04-1.75,2.55-1.15,3.47.61.92-.66,1.22.61.92,1.27-.31,1.25-.88,2.44.38,1.19,1.26,1.57,0,1.51,2.15-.06,2.14-.66,1.23-.87,3.21-.21,1.98.46,4.34,3.02,4.29,2.56-.04,1.16.4,2.56-.04,1.41-.44,2.07-1.66,3.4-.53,1.33,1.13.47,1.05,2.07,1.91,1.6.87,1.4,2.85,3.49,1.76,2.09-1.09,3.07-1.71,2.87-3.02-.19-1.31.23-1.41-1.52-2.43-1.75-1.03-2.18-.92-3.04-1.29-.87-.37-3.49-1.76-1.09-2.25,2.4-.49,2.14.06,3.96-.77,1.82-.83,2.45-2.91,2.86-3.3.41-.39-2.12.51,2.61-2.47,4.73-2.98,5.3-2.93,5.11-4.23-.19-1.31.17.73-.19-1.31-.37-2.04-.39-2.61-.13-3.16.26-.55.25-.84,2.24-.93,1.99-.09.13-.42,1.99-.09,1.87.32,1.82-.83,3.57.2,1.75,1.03,2.47,1.24,1.94,2.33-.53,1.09-.86-.08-.32,2.69.54,2.77-1.02,3.05,1.29,3.84,2.31.79,1.75,1.03,4.75,1.17,3,.14,2.59.53,4.58.44,1.99-.1,2.85-.02,5.07-1.52,2.22-1.51,1.48-2.29,3.35-1.68,1.88.61,3.02.72,4.48,1.43,1.45.71,1.58.29,1.91,1.47.33,1.17-1.37,1.3-.04,2.71,1.34,1.42,4.06,1.82,4.8,2.32.73.5,2.13-.23.64,1.78-1.49,2-2,3.38-3.98,3.77-1.98.38-.75-1.07-4.07,1.47-3.32,2.54-1.75,2.55-4.62,5.57-2.87,3.02-2.03,2.81-.85,3.78,1.18.97,1.92,1.76.29,3.6-1.64,1.85-4.42,3.59-1.54,4.43,2.88.85,6.58.63,7.61,1.44,1.03.81,6.24,6.32,5.65,9.55-.58,3.23-2.87,3.02-2.76,2.31.11-.71-1.82-2.75-2.84-3.28-1.02-.53-2.44-.38-1.2,2.03,1.24,2.41,1.18,4.55-.67,4.51-1.86-.03-2.99.14-4.19-1.4-1.2-1.55-1.68-2.88-2.88-4.43-1.2-1.54-1.24-2.41-3.22-2.02-1.98.38-2.26.64-3.82.64-1.57,0-3.41.25-3.41.25,0,0-1.48-1.29-.66,1.22.81,2.51,2.12,3.06,1.15,3.97-.96.91-.26.55-2.49,1.77-2.23,1.22-1.59-.58-2.78,1.74-1.19,2.32-2.37,1.35-1.57,3.57.8,2.22,1.62,1.44,1.85,3.61.23,2.17.66,2.35-.85,3.78-1.51,1.43-1.84,3.83-3.16,2.99-1.32-.84-.79-1.94-1.27-3.27-.48-1.33-.24-2.45-1.4-2.85s-1.84.25-3.51,1.24c-1.67.98-3.56.09-3.34,1.97.22,1.88,1.5,1.86-.29,3.55-1.79,1.69-2.86,3.3-4.74,2.7-1.88-.61-1.77-1.6-3.07-1.87-.94-.19-2.17-.1-2.84.95v10.35c.62.67,1.46,1.03,2.59.26,2.22-1.5,1.62-2.13,3.51-1.24,1.89.89,2.76,1.27,3.93,1.95,1.17.68,1.38,2.56,3.62,1.34,2.23-1.22,4.45-2.72,5.13-3.66.67-.94.52-1.38,1.79-1.69,1.27-.31-.16,3.13,1.88,4.18,2.04,1.05,4.41-.3,4.41-.3,0,0,.96-.91,1.06-1.9.1-.99,1.86-3.54,2.27-3.93.41-.39,2.6.82,2.92,1.71.32.89,3.34,1.61,4.02.67.67-.94.35-1.82.62-2.37.26-.55-.65-2.07-.65-2.07,0,0-.74-.79-1.63-1.44-.88-.66-.49-1.62-.94-2.09-.45-.47,1.22-1.46.73-3.08-.49-1.62-.64-1.78-1.25-2.69-.61-.92-.62-1.2.63-2.09,1.25-.88,1.52-1.14,2.85-.01,1.33,1.13,2.4,3.09,2.4,3.09,0,0,.85-.21,2.98-.43,2.13-.23,3.8-1.21,2.62,1.39-1.18,2.61-2.68,4.32-.26,4.12,2.42-.2,3.67-.79,4.38-.87.71-.08,1.51-1.43,2.24-.93.73.5,1.78-1.98,1.34,1.42-.43,3.39,1.29,3.84,2.55,3.25,1.26-.6,1.25-.88,3.64-1.66,2.39-.77,1.36-1.59,3.79-1.5,2.43.09,2.68-.75,3.56-.09.88.66,1.82,2.75-.55,4.1-2.37,1.35-1.56.28-3.5,1.53-1.95,1.24-3.42-.04-2.87,3.02.44,2.42.81,3.4-.09,4.24,1.07.52,1.18,1.03,1.18,1.03,0,0-.36,4.18,2.89,2.09,1.93-1.24,3.34-1.38,4.33-1.79l-.16-14.61-.24-18.42,1.42-10.39,1.06-5.19,1.53-2.01,2.36-2.24,3.69-2.6,1.74-1.42,2.12-.35,57.21,2.44c.48-.9.54-1.57,2.4-3.1ZM711.03,548.08c-.63-.76-1.14-1.44-1.53-2.03-.42,1.71-.15,2.98,1.53,2.03ZM936.01,416.16c-.26-.15-.51-.33-.74-.57-2.49-2.58-11.74-1.29-8.54,2.58,2.93,3.54,6.76,2.49,9.57,3.03l-.25-4.48-.03-.56ZM484.15,397.59h0l-.65-.28.65.28ZM511.95,394.57l-.33.2h0l.33-.2ZM327.3,385.12l14.06.67-14.06-.67h0ZM511.61,394.78l-1.5.92,1.5-.92h0ZM510.12,395.7l-.55.6h0s.55-.6.55-.6ZM484.5,397.74l1.86.79-2.21-.93h0l.35.15ZM508.06,397.41l-.54.17.54-.17h0ZM588.79,568.51h0s0,0,0,0h0ZM625.79,613.71c1.2-3.4,1.8-5.49,3.29-7.58,1.5-2.09,1.2-2.61-3.29-5.75-4.49-3.14-4.49-4.44-5.09-6.54-.6-2.09-1.5-2.61-3.59-.52-2.1,2.09-2.99.78-3.89,3.66-.9,2.88-1.68-.41-3.78,1.42-2.1,1.83-4.56,2.61-.36,4.44,4.19,1.83,2.94,1.98,4.74,1.46,1.8-.52,2.39-1.31,2.69,1.31.3,2.62,2.1,3.92-1.2,4.71-3.29.78-6.59,3.66-3.89,5.49,2.65,1.8,2.41.32,4.4,3.27l10.48.4c-.75-2.03-1.23-3.71-.51-5.76ZM492.12,811.19l.89-7.7,1.77-4.47,1.06-1.15,1.06-8.77.8-1.06,1.02-9.06c-1.17-.5-2.67-1.05-2.94-1.78-.36-.97,0-1.61-3.2-1.61s-3.56.97-8.54,1.93c-4.98.97-9.26,3.87-11.75,1.29-2.49-2.58-11.74-1.29-8.54,2.58,3.2,3.87,7.47,2.26,10.32,3.22,2.85.97,3.56-1.61,4.27,2.58.71,4.19,1.07,6.44-1.42,8.38-2.49,1.93-5.34,3.22-7.12,1.29-1.78-1.93-2.14-2.9-4.27-2.58-2.14.32-2.49,1.29-3.92,3.22-1.42,1.93-6.05.64-6.05.64-3.56-2.9-5.7-3.87-6.76-3.87s-1.42,1.61-2.49,1.94c-1.07.32-1.78.64-3.2.97-1.42.32-3.56-2.26-3.2,3.22.35,5.48,2.14,5.8,2.14,5.8,0,0,4.27-.32,2.14,2.58-2.14,2.9-1.07,4.51-3.56,5.16-2.49.64-3.2.32-3.56,4.19-.36,3.87-.71,2.58-.36,5.8.36,3.22-.71,5.16,0,7.41.71,2.26.71,2.9,4.27,2.9s1.78-1.93,5.34-2.26c3.56-.32,4.63-1.61,5.69,0,1.07,1.61-.71,1.93,2.14,3.22,2.85,1.29,1.42,5.15,5.7.64,4.27-4.51,5.34-6.45,6.41-9.02,1.07-2.58,1.07-4.51,1.42-6.45.35-1.93,1.78-3.54,4.98-3.54s4.98-.97,6.41.97c1.42,1.93,1.78,2.58,2.49,3.87.71,1.29-.71,2.25,2.14,2.58,2.85.32,3.92.65,5.7.32,1.07-.2,1.5-.15,1.82.19l-.23-9.5,1.15-4.07ZM529.79,647.92l1.86-8.68,1.15-4.87.97-4.69,1.24-5.22,1.42-7.17,2.21-5.93.71-2.92,1.59-.18,2.3.27,1.95,1.68,10.45,2.83,10.8,2.3,18.06.89,21.92,2.22c1.16-2.02,1.74-.27,1.74-5.09,0-5.1-.22-6.81-.87-7.94-.65-1.13-1.95-.57-3.03-1.89-1.08-1.32-1.73-.57-2.17-2.65-.43-2.08-.43-.38-.43-3.22s.22-3.97-1.3-3.97-2.38-1.89-2.38.94,1.95,3.59-.43,3.78c-2.38.19-3.25-.19-4.33,1.32-1.08,1.51-3.9,2.65-1.3,5.11,2.6,2.46,4.33,1.7,3.25,4.54-1.08,2.84-1.08,3.03-3.03,3.03s-1.08-1.51-1.95,0c-.87,1.51-.33,3.13-2.73,3.13s-3.77-1.43-4.85-2c-1.08-.57-1.08-.19-2.16-1.51-1.08-1.32-.65-1.32-1.3-2.27-.65-.94-1.08-1.51-.65-2.84.43-1.32.87-1.32,1.3-3.4.43-2.08.87-2.65.43-3.97-.43-1.32-.43-1.89-1.08-2.08-.65-.19-1.3.38-2.16-.76-.87-1.13-1.52-1.7-1.73-3.21-.22-1.51-.87-2.46,1.08-3.78,1.95-1.32,1.73-1.89,3.25-1.89s1.08,1.51,3.25-.38c2.16-1.89,2.16-2.65,3.46-3.21,1.3-.57,2.82-.38,3.46,0,.65.38,2.38.38,2.6-.19.22-.57.65-1.32.22-3.59-.43-2.27,2.16-2.84-.65-3.97-2.81-1.13-2.81.38-3.25-2.08-.12-.67-.23-1.24-.34-1.75l-1.57,1.66-3.63,1.77-3.19,1.24-3.72.71-3.36.86-2.67-.14c-.24,1.32-.13,1.64.51,2.09,1.08.76-.65-.38,1.08.76,1.73,1.13,2.17,1.51,2.38,2.08.22.57.43.76-.86,2.27-1.3,1.51.22.38-1.3,1.51-1.52,1.14-.65,1.89-2.6,2.46-1.95.57-2.6.95-3.03-.19-.43-1.13.65-.57-1.73-2.08-2.38-1.51-1.52-2.84-3.68-1.7-2.17,1.13-1.95.57-4.11,2.65-2.16,2.08-2.16,1.51-3.46,3.03-1.3,1.51-1.95,2.08-2.38,4.73-.43,2.65.65,2.65-1.08,3.59-1.73.95-2.6,1.7-4.11,2.27-1.51.57-1.3.95-2.38.38-1.08-.57,0-1.89-1.95-1.89s-4.11,1.7-4.98,1.89-1.3,1.7-1.73-.76c-.43-2.46-1.08-3.78,0-5.48,1.08-1.7,1.3.19,1.73-3.97.43-4.16-.65-3.03-.87-7.19-.22-4.16-.65-3.4-2.16-3.21-1.51.19-2.6.19-2.81-2.27-.22-2.46.43-5.68-2.16-4.16-2.6,1.51-4.98,4.35-6.28,4.54-1.3.19-8.88.19-10.82-2.46-1.95-2.65-.22-4.16.22-3.59.43.57,3.25.57,4.33.19,1.08-.38,1.95-1.51-.65-2.27-2.6-.76-4.11-2.27-2.82-3.59,1.3-1.32,1.95-2.27,3.9-2.08,1.95.19,3.25.76,5.2.95,1.95.19,2.6.76,3.68-.95,1.08-1.7,1.08-2.08,2.16-3.21,1.08-1.13,2.16-2.65,2.16-2.65,0,0,1.95-.19-.43-1.32-2.38-1.13-3.68-.57-3.68-1.89s-.22-.57.43-3.03c.65-2.46,1.52-.76.65-3.21-.87-2.46.65-2.65-1.52-3.59-2.17-.95-2.17.19-3.9-1.13-1.73-1.32-2.16-1.14-2.16-3.22s-1.52-3.97,0-4.35c1.52-.38,1.95.76,3.25,1.32,1.3.57,1.95,1.51,3.03.95,1.08-.57,1.08-1.51,1.52-3.4.43-1.89,2.38-2.65.87-3.78-1.52-1.13-2.38-.19-2.38-2.65s-.43-4.35,1.3-5.3c1.73-.94,2.38-.19,3.46-.94,1.08-.76,2.16-2.27.43-4.16-1.73-1.89-2.38-2.08-3.03-3.03-.65-.94-.22-1.7-1.3-2.08-1.08-.38-3.9-1.51-4.33,1.14-.43,2.65.43,2.65-1.52,3.4-1.95.76-2.82,1.13-4.11,1.51-1.3.38-2.81-.76-3.46,1.7-.65,2.46-1.08,5.11-.87,6.24.22,1.14.65,1.32,0,2.46-.65,1.13-2.16-2.27-4.33-1.51-2.16.76-2.81,3.4-2.81,3.4,0,0,0,1.32.65,2.08.65.76,1.3,3.78,1.3,4.35s-2.38,1.32-3.25.94c-.87-.38-3.46,1.32-3.25,2.46.22,1.13,1.08,1.51,1.3,2.08.22.57,1.95.95,1.95.95,0,0,1.08,0,2.17-.19,1.08-.19,1.52.76,2.17.76s.22,1.89,1.73,2.65c1.52.76,1.73.76,2.81.95,1.08.19,1.3.38,1.08,1.89-.22,1.51-.22,1.89-1.95,2.08-1.73.19-3.9-.38-3.9-.38,0,0-.43.76-1.73,2.46-1.3,1.7-1.73,3.59-2.81.95-1.08-2.65-1.3-4.92-2.81-3.03-1.52,1.89-1.95,3.21-2.38,3.78-.43.57,0,2.08-.87,2.27-.86.19.22,2.65-1.95,0-2.16-2.65-3.68-1.7-4.11-.38-.43,1.32-.22,1.51-1.3,3.78-1.08,2.27.22,2.08-1.51,3.78-1.73,1.7-1.3,2.46-2.38,2.65-1.08.19-3.25-.57-2.6-3.22.65-2.65.86-1.32,1.3-3.59.43-2.27,2.38-2.46-.22-4.16-2.6-1.7-3.46-1.89-2.81-4.16.65-2.27,1.08-2.65,1.3-4.73.22-2.08.65-2.65,0-5.67-.65-3.03-3.46-7.37-4.11-3.4-.42,2.57-.66,4.41-1.13,5.4l4.14,1.03-3.19,34.94-12.94-3.1c.54,1.37,2,2.31.77,4.09-1.3,1.89-2.16,1.89-2.16,4.35s0,1.51-.22,5.29c-.22,3.78,1.3,5.11-.22,6.24-1.51,1.13-1.73,1.51-3.25,1.51s-2.6.57-2.6,3.03.65,4.54-1.3,5.67c-1.95,1.13-2.17,1.51-2.82,2.84-.65,1.32-.87,3.78-2.6,5.48-1.73,1.7-2.16.76-3.25,3.03-1.08,2.27-2.16,3.78-.43,4.35,1.73.57,2.82.57,4.11.95,1.3.38,2.81-.57,3.03,2.84.22,3.4-.87,3.97.65,4.16,1.51.19,2.81-.19,3.46,1.33.65,1.51.43,1.7,1.08,4.16.65,2.46,1.3,4.16,2.81,5.67,1.52,1.51,2.6,2.65,2.81,4.73.22,2.08,1.08,1.89.86,5.11-.22,3.22-.22,3.41-1.51,7-1.3,3.59-2.16,1.32-1.52,6.05.65,4.73.43,1.7,1.3,6.05.87,4.35.22,3.78.87,5.86.65,2.08,1.95,2.84.22,3.4-1.73.57-2.6.38-2.6,2.46s-.43,2.46.87,2.84c1.3.38,1.08.76,2.38.38,1.3-.38,3.25.57,1.73,2.08-1.51,1.51-1.08,1.32-2.38,2.27-1.3.95-1.73.38-1.51,3.21.22,2.84,0,2.65.22,4.54.22,1.89-2.16,5.86-1.3,6.43.87.57,1.73,1.7,3.03.95,1.3-.76.65-1.7,2.38-2.84,1.73-1.13,2.81-2.27,3.46-.76.65,1.51-.22,2.65,1.73,2.08,1.95-.57,1.95-.76,2.6-1.32.65-.57.43-3.03.87-3.97.43-.95,1.73-1.89,2.81-1.13,1.08.75.87,2.65,2.38,1.89,1.52-.76,1.95-.95,2.38-1.7.43-.76.87-2.65,1.73-4.35.86-1.7,1.95-3.21.86-4.73-1.08-1.51-.86-1.7-2.16-2.84-1.3-1.14-1.08-3.41.43-3.41s1.52,1.32,3.03-.19c1.52-1.51,1.73-2.08,1.95-4.16.22-2.08-1.08-2.84-1.73-4.54-.65-1.7-.22-3.59.65-4.16.86-.57,2.38-1.32,2.81.19.43,1.51.22,1.51,1.52,1.7,1.3.19,1.73-.38,2.81-.95,1.08-.57,1.95.38,2.6,0,.65-.38.65-1.7,1.08-2.27.43-.57.87-1.14,1.08-2.08.22-.95,1.3.38,0-2.65-1.3-3.03-2.81-3.4-1.52-5.48,1.3-2.08,3.03-3.4,3.68-4.35.65-.95,1.08-1.51,1.08-3.03s-1.3-4.16.65-4.73c1.95-.57,3.68-.19,4.55.38.86.57,1.51,2.46,2.6,2.46s4.11.19,5.84-.19c1.73-.38,4.11-3.59,4.98-3.78.87-.19,1.95,1.89,2.38,2.84.43.95.43,2.08,1.08,3.78.25.66.53,1.28.78,1.87l1.48-4.43.97-3.72Z"/>
</svg>